<?xml version="1.0" standalone="no"?>
<!DOCTYPE svg PUBLIC "-//W3C//DTD SVG 1.1//EN" "http://www.w3.org/Graphics/SVG/1.1/DTD/svg11.dtd" >
<svg xmlns="http://www.w3.org/2000/svg">
<metadata></metadata>
<defs>
<font id="lobsterregular" horiz-adv-x="1034" >
<font-face units-per-em="2048" ascent="1638" descent="-410" />
<missing-glyph horiz-adv-x="444" />
<glyph unicode="&#xfb01;" horiz-adv-x="1093" d="M-424 -283q0 38 11 71t28 58t46.5 48t55.5 38.5t67.5 32.5t70.5 26.5t75 24.5l228 1078q20 91 51.5 163t70.5 119t81.5 79t92 49t92.5 23.5t91 6.5q54 0 101.5 -5.5t98 -21t86 -41t58.5 -68.5t23 -100q0 -86 -46 -125.5t-116 -39.5q-52 0 -87.5 25t-35.5 85q0 38 19 69 t50 31q15 0 17 -2q-1 40 -31.5 61t-81.5 21q-91 0 -144 -65.5t-73 -165.5l-35 -168h164l-16 -82h-164l-234 -1106q-17 -82 -48 -145t-67 -100.5t-80 -61.5t-83.5 -32.5t-81.5 -8.5q-114 0 -184 62t-70 167zM-311 -248q0 -32 17.5 -52t34 -25t32.5 -5q35 0 68 39.5t50 120.5 l25 119q-104 -32 -165.5 -83t-61.5 -114zM530 233q0 47 17 134l139 657h295l-147 -696q-9 -34 -9 -66q0 -42 20 -59t64 -17q59 0 110 51t75 130h86q-33 -95 -79 -167t-90.5 -111t-95.5 -63t-89 -31t-76 -7q-98 0 -159 61t-61 184z" />
<glyph unicode="&#xfb02;" horiz-adv-x="1122" d="M-428 -291q0 55 19 99t47.5 73t79 55.5t95 42.5t113.5 37l246 1170q17 84 49 148t69.5 101t84 60.5t86.5 31t84 7.5q87 0 187.5 -22.5t167 -46.5t187.5 -72l-225 -1065q-8 -31 -8 -66q0 -42 20 -59t64 -17q59 0 109.5 51t74.5 130h86q-33 -95 -79 -167t-90.5 -111 t-95.5 -63t-89 -31t-76 -7q-98 0 -158.5 61t-60.5 184q0 52 16 134l213 1005q-37 15 -88.5 24t-78.5 9q-19 0 -37.5 -6.5t-39 -22.5t-37 -50t-26.5 -83l-45 -219h191l-17 -82h-190l-234 -1106q-17 -84 -49 -148t-69 -101t-83 -60.5t-86.5 -31t-84.5 -7.5q-96 0 -169 62.5 t-73 158.5zM-315 -262q0 -25 24 -46.5t58 -21.5q36 0 69.5 38t50.5 122l25 119q-109 -36 -168 -85t-59 -126z" />
<glyph unicode="&#xfb03;" horiz-adv-x="1564" d="M-428 -291q0 55 19 99t47.5 73t79 55.5t95 42.5t113.5 37l246 1170q17 84 49 148t69 101t83.5 60.5t87 31t84.5 7.5q170 0 252 -107q117 107 309 107q54 0 101.5 -5.5t98 -21t86 -41t58.5 -68.5t23 -100q0 -86 -46 -125.5t-116 -39.5q-52 0 -87.5 25t-35.5 85q0 38 19 69 t50 31q15 0 17 -2q-1 40 -31.5 61t-81.5 21q-91 0 -144 -65.5t-73 -165.5l-35 -168h543l-147 -696q-9 -35 -9 -66q0 -42 20 -59t64 -17q59 0 110 51t75 130h86q-33 -95 -79 -167t-90.5 -111t-95.5 -63t-89 -31t-76 -7q-98 0 -159 61t-61 184q0 47 17 134l121 575h-246 l-234 -1106q-17 -82 -48 -145t-67 -100.5t-80 -61.5t-83.5 -32.5t-81.5 -8.5q-75 0 -133.5 29t-89.5 80q-99 -109 -262 -109q-96 0 -169 62.5t-73 158.5zM-303 -262q0 -25 24 -46.5t58 -21.5q36 0 70 38t51 122l24 119q-109 -36 -168 -85t-59 -126zM145 -293 q5 -36 28.5 -50.5t47.5 -14.5q97 0 139 188l48 223l-183 -37l-39 -180q-16 -75 -41 -129zM238 74l180 30l176 838h-172zM438 1024h174l15 70q31 152 102 256q-27 34 -82 34q-78 0 -120 -55.5t-56 -136.5z" />
<glyph unicode="&#xfb04;" horiz-adv-x="1597" d="M-428 -291q0 55 19 99t47.5 73t79 55.5t95 42.5t113.5 37l246 1170q17 84 49 148t69 101t83.5 60.5t87 31t84.5 7.5q152 0 235 -86q94 86 240 86q87 0 187.5 -22.5t168 -46.5t187.5 -72l-226 -1065q-8 -31 -8 -66q0 -42 20 -59t64 -17q59 0 109.5 51t74.5 130h86 q-33 -95 -79 -167t-90.5 -111t-95.5 -63t-89 -31t-76 -7q-98 0 -158.5 61t-60.5 184q0 47 17 134l213 1005q-37 15 -89 24t-79 9q-19 0 -37.5 -6.5t-39 -22.5t-37 -50t-26.5 -83l-45 -219h191l-17 -82h-190l-236 -1106q-17 -82 -48 -145t-67 -100.5t-80 -61.5t-83.5 -32.5 t-81.5 -8.5q-160 0 -223 111q-101 -111 -262 -111q-96 0 -169 62.5t-73 158.5zM-303 -262q0 -25 24 -46.5t58 -21.5q36 0 70 38t51 122l24 119q-109 -36 -168 -85t-59 -126zM145 -291q4 -37 29 -52t47 -15q97 0 139 188l48 223l-183 -37l-39 -180q-16 -74 -41 -127zM238 74 l180 30l178 838h-174zM438 1024h174l35 162q18 94 66 178q-26 20 -66 20q-78 0 -120 -55.5t-56 -136.5z" />
<glyph horiz-adv-x="2048" />
<glyph horiz-adv-x="2048" />
<glyph unicode="&#xd;" horiz-adv-x="2048" />
<glyph unicode=" "  horiz-adv-x="444" />
<glyph unicode="&#x09;" horiz-adv-x="444" />
<glyph unicode="&#xa0;" horiz-adv-x="444" />
<glyph unicode="!" horiz-adv-x="526" d="M70 164q0 67 47.5 114.5t115.5 47.5q67 0 114.5 -47t47.5 -115t-47.5 -116t-114.5 -48t-115 48t-48 116zM201 473l145 961h295l-266 -961h-174z" />
<glyph unicode="&#x22;" horiz-adv-x="860" d="M127 1149l125 387h215l-186 -387h-154zM449 1149l124 387h215l-186 -387h-153z" />
<glyph unicode="#" horiz-adv-x="1349" d="M92 227l43 209h213l43 232h-209l43 209h203l107 593h180l-133 -593h215l106 593h180l-133 -593h213l-41 -209h-217l-51 -232h219l-41 -209h-225l-62 -282h-116l51 282h-242l-61 -282h-117l51 282h-219zM485 436h232l43 232h-223z" />
<glyph unicode="$" horiz-adv-x="825" d="M49 455q0 78 43 127t105 49q41 0 64.5 -15t23.5 -36q-82 -14 -82 -152q0 -42 24 -74t62 -51l73 402q-16 14 -49 39.5t-51.5 41t-44 41t-39 46.5t-23.5 50.5t-10 61.5q0 109 97 186t219 82l39 217h118l-51 -223q79 -15 128.5 -53t49.5 -117q0 -73 -25.5 -114t-72.5 -41 q-42 0 -80 47q49 32 49 106q0 26 -16 52t-49 38l-74 -329q12 -9 39.5 -28t41.5 -29.5t38 -30t37 -34.5t29.5 -38t25 -44.5t15 -50t6.5 -59.5q0 -143 -101.5 -220.5t-267.5 -82.5l-59 -274h-56l49 276q-103 8 -164 64t-61 170zM340 1024q0 -68 57 -125l49 277 q-55 -11 -80.5 -54.5t-25.5 -97.5zM358 295q69 10 102.5 60.5t33.5 123.5q0 82 -60 156z" />
<glyph unicode="%" horiz-adv-x="1318" d="M219 999q0 121 39 220t115.5 159t177.5 60q88 0 128 -58t40 -174q0 -68 -20.5 -142.5t-57 -142t-96 -111.5t-129.5 -44q-113 0 -155 57t-42 176zM248 0l790 1536h148l-791 -1536h-147zM367 975q0 -133 55 -133q77 0 125.5 117t48.5 278q0 62 -10.5 95.5t-40.5 33.5 q-50 0 -106.5 -83.5t-67.5 -219.5q-4 -50 -4 -88zM727 233q0 121 39 220t115.5 159t177.5 60q91 0 139.5 -60t48.5 -172q0 -55 -10.5 -112.5t-35 -117t-60.5 -106t-92.5 -75.5t-124.5 -29q-113 0 -155 57t-42 176zM864 209q0 -133 56 -133q51 0 90 53t58 138.5t19 189.5 q0 139 -57 139q-50 0 -100.5 -80.5t-61.5 -218.5q-4 -50 -4 -88z" />
<glyph unicode="&#x26;" horiz-adv-x="1396" d="M23 401q0 101 40 193t126 164.5t204 95.5q-101 55 -152 137t-51 174q0 71 31 137t87 118.5t144 84t193 31.5q74 0 139.5 -15.5t120 -47t86 -86t31.5 -125.5q0 -87 -34.5 -138t-108.5 -51q-73 0 -117 53q34 11 62 68.5t28 99.5q0 15 -1 29t-9 38.5t-21 41.5t-40 30t-64 13 q-108 0 -179 -73.5t-71 -178.5q0 -98 65.5 -186.5t204.5 -151.5q-184 -77 -270 -186t-86 -226q0 -112 71 -192t169 -80q45 0 86.5 11t85.5 38.5t80 70.5t67.5 110.5t50.5 154.5q-102 12 -145 12q-134 0 -193 -92l-14 2q32 131 135.5 210t259.5 79q29 0 80 -5t76 -5 q62 0 115.5 22t78.5 66h13q0 -89 -93.5 -177t-218.5 -108q-45 -161 -109.5 -275t-123 -170.5t-141.5 -87t-133.5 -35.5t-131.5 -5q-103 0 -185 34.5t-133 93t-78 131.5t-27 154z" />
<glyph unicode="'" horiz-adv-x="548" d="M209 1149l125 387h215l-187 -387h-153z" />
<glyph unicode="(" horiz-adv-x="894" d="M283 205q0 202 48 408t133 385.5t211.5 322.5t274.5 215l27 -82q-149 -76 -275.5 -284.5t-198 -481t-71.5 -538.5q0 -378 150 -603l-68 -59q-231 254 -231 717z" />
<glyph unicode=")" horiz-adv-x="845" d="M-59 -430q149 75 275 283.5t197.5 481.5t71.5 539q0 380 -149 603l67 59q232 -255 232 -717q0 -271 -81 -538.5t-235.5 -482t-351.5 -310.5z" />
<glyph unicode="*" horiz-adv-x="1054" d="M176 1026l223 129l-223 129l62 107l219 -127v276h131v-276l219 127l61 -107l-223 -129l223 -129l-61 -106l-219 127v-277h-131v277l-219 -127z" />
<glyph unicode="+" horiz-adv-x="1054" d="M109 420l49 229h262l55 250h232l-56 -250h260l-47 -229h-262l-55 -252h-232l56 252h-262z" />
<glyph unicode="," horiz-adv-x="442" d="M49 154q0 68 47.5 115.5t114.5 47.5q66 0 102.5 -43t36.5 -112q0 -62 -30.5 -136.5t-92.5 -151.5t-143 -132q-18 12 -18 35q0 25 16.5 50t36.5 42.5t36.5 43t16.5 50.5q0 23 -27 41q-96 61 -96 150z" />
<glyph unicode="-" horiz-adv-x="593" d="M39 455l37 161h409l-34 -161h-412z" />
<glyph unicode="." horiz-adv-x="538" d="M63 154q0 68 47.5 115.5t114.5 47.5q68 0 116 -48t48 -115t-48 -114.5t-116 -47.5q-67 0 -114.5 47t-47.5 115z" />
<glyph unicode="/" horiz-adv-x="636" d="M23 -512l434 2048h147l-434 -2048h-147z" />
<glyph unicode="0" horiz-adv-x="1118" d="M61 520q0 167 31.5 320t92.5 279.5t146 219.5t198.5 145t242.5 52q188 0 276.5 -135t88.5 -400q0 -103 -19.5 -217t-56 -228.5t-93.5 -217.5t-127 -182.5t-162.5 -126.5t-193.5 -47q-104 0 -179 24t-122.5 66.5t-75 112t-37.5 148t-10 187.5zM375 463q0 -309 121 -309 q84 0 156 86t118 226t72 313.5t26 353.5q0 71 -4 119.5t-15 91.5t-33.5 64.5t-57.5 21.5q-46 0 -105 -56t-114.5 -151.5t-98.5 -244t-55 -312.5q-10 -92 -10 -203z" />
<glyph unicode="1" horiz-adv-x="649" d="M43 0l270 1278h-194l24 94q112 0 233.5 31t287.5 129l-326 -1532h-295z" />
<glyph unicode="2" horiz-adv-x="1007" d="M-23 61q0 91 37 178.5t96.5 161t131.5 147.5t144 151.5t131.5 158.5t96.5 184t37 213q0 72 -39 120t-86 48q-98 0 -132 -40t-34 -126q0 -43 19.5 -85.5t58.5 -53.5q-75 -69 -155 -69q-65 0 -106.5 48t-41.5 136q0 43 14 84.5t46 81.5t79.5 69.5t120.5 47.5t162 18 q389 0 389 -330q0 -94 -31 -181t-84 -157t-117.5 -134t-137.5 -122.5t-139 -111.5t-126 -113t-94 -115h10q56 0 183 -18.5t208 -18.5q26 0 49 3t39.5 6t36 13t29.5 14.5t29.5 21.5t27 23.5t31.5 29.5t33 31q2 -33 2 -90q0 -82 -9.5 -135t-35.5 -94.5t-74.5 -60t-124.5 -18.5 q-113 0 -259 37t-249 37q-21 0 -49 -9.5t-68 -28t-44 -19.5q-5 19 -5 67z" />
<glyph unicode="3" horiz-adv-x="1052" d="M12 338q0 133 64 213t184 80q139 0 160 -105q-45 -3 -79 -19.5t-53 -38.5t-30 -53t-14.5 -56.5t-3.5 -53.5q0 -106 43 -144t112 -38q127 0 206 102.5t79 243.5q0 125 -68.5 232.5t-203.5 154.5q162 47 256 164.5t94 234.5q0 75 -40.5 121.5t-115.5 46.5 q-73 0 -117.5 -43.5t-44.5 -115.5q0 -48 19.5 -91.5t58.5 -54.5q-75 -69 -156 -69q-64 0 -105.5 46t-41.5 128q0 138 121.5 224.5t302.5 86.5q180 0 280.5 -86.5t100.5 -212.5q0 -107 -72.5 -209t-208.5 -172q130 -42 194 -132t64 -206q0 -74 -26 -149.5t-77 -143 t-119.5 -120t-160.5 -83t-194 -30.5q-45 0 -89 5.5t-105 27t-105.5 56.5t-76.5 102.5t-32 156.5z" />
<glyph unicode="4" horiz-adv-x="974" d="M16 563q22 68 76.5 184.5t101 214t84 223t37.5 228.5q0 68 -14 123q96 0 161.5 -51.5t65.5 -143.5q0 -91 -33.5 -182.5t-75.5 -153.5t-101 -148t-89 -142h320l166 780l303 41l-176 -821h131l-41 -152h-123l-119 -563h-295l121 563h-500z" />
<glyph unicode="5" horiz-adv-x="1058" d="M31 285q0 77 24 135.5t63.5 91t84.5 48t94 15.5q124 0 145 -104q-84 -11 -134 -60t-50 -137q0 -43 15 -73.5t41 -45.5t53 -21.5t59 -6.5q82 0 143 58t89 142t28 177q0 145 -59.5 221t-165.5 76q-52 0 -113.5 -20.5t-99.5 -41t-92 -53.5l168 817q36 -4 124 -15t140 -15.5 t104 -4.5q164 0 332 66q4 -46 4 -68q0 -107 -56 -172t-179 -65q-65 0 -197.5 25t-144.5 26l-82 -371q131 64 256 64q73 0 132.5 -22t101.5 -61t70.5 -93t42 -116t13.5 -132q0 -88 -21 -168t-68 -152t-115 -124.5t-168 -83.5t-222 -31q-360 0 -360 295z" />
<glyph unicode="6" horiz-adv-x="1017" d="M33 395q0 49 2 76q15 234 67.5 426.5t142 336.5t222.5 223t299 79q109 0 172 -51.5t63 -118.5q0 -55 -46.5 -94t-135.5 -43q33 29 33 74q0 43 -29.5 76.5t-72.5 33.5q-12 0 -25 -2t-39 -11.5t-51 -26t-57 -49t-61 -76.5t-60 -112.5t-56.5 -152t-48.5 -201t-37 -254.5 q-10 -105 -10 -155q0 -74 11 -120t35.5 -68t50.5 -28.5t67 -6.5q65 0 130.5 61.5t108 163t42.5 207.5q0 35 -4.5 67t-16 63t-34 49.5t-54.5 18.5q-104 0 -180 -155q-41 59 -41 118q0 88 85 146.5t204 58.5q57 0 104 -20t78.5 -53.5t53 -77.5t31 -91t9.5 -96 q0 -130 -45.5 -246t-121 -197.5t-176.5 -129t-210 -47.5q-96 0 -167.5 21.5t-115 57.5t-70.5 89.5t-36.5 110t-9.5 126.5z" />
<glyph unicode="7" horiz-adv-x="950" d="M68 256q0 70 19 146t47.5 145t80.5 154.5t98.5 152.5t122.5 162t132 161t145 169q-89 12 -174 12q-295 0 -424 -146q-17 80 -17 119q0 103 65.5 154t213.5 51h672q-124 -185 -352 -545.5t-265 -447.5q-65 -151 -65 -264q0 -62 22.5 -107t77.5 -92q-17 -46 -65 -63 t-123 -17q-103 0 -157 55t-54 201z" />
<glyph unicode="8" horiz-adv-x="1021" d="M-16 401q0 149 95 276t273 177q-174 102 -174 279q0 74 34 146t92.5 128.5t145.5 91.5t185 35q184 0 285.5 -85t101.5 -212q0 -108 -74.5 -212t-212.5 -171q125 -40 186.5 -124.5t61.5 -194.5q0 -94 -43 -190.5t-116 -175.5t-181 -129t-227 -50q-102 0 -185.5 34.5 t-136.5 92t-81.5 131t-28.5 153.5zM281 334q0 -89 37.5 -143t107.5 -54q101 0 168.5 103.5t67.5 240.5q0 187 -130 303q-121 -82 -186 -207t-65 -243zM446 1167q0 -150 109 -243q97 62 152 168t55 200q0 64 -26 104t-74 40q-98 0 -157 -80t-59 -189z" />
<glyph unicode="9" horiz-adv-x="1001" d="M59 184q0 69 38.5 110.5t138.5 41.5q-29 -29 -29 -70q0 -44 31 -79t77 -35q16 0 29 1t41.5 9t52.5 22.5t57 44.5t60.5 70.5t57.5 106t53 146.5t42.5 195.5t30.5 249.5q4 78 4 107q0 92 -12.5 153t-38.5 91.5t-55.5 41.5t-73.5 11q-65 0 -125.5 -66.5t-97.5 -170 t-37 -208.5q0 -37 5.5 -71t17.5 -67t35.5 -53t56.5 -20q61 0 102.5 27.5t69.5 95.5q43 -52 43 -102q0 -77 -80 -132.5t-195 -55.5q-73 0 -130.5 32.5t-91 85.5t-50 114.5t-16.5 125.5q0 166 70 304t192 217t268 79q92 0 162.5 -26t114 -69t70.5 -106.5t37.5 -130.5 t10.5 -149q0 -308 -82.5 -548.5t-241 -378.5t-370.5 -138q-111 0 -176.5 59.5t-65.5 134.5z" />
<glyph unicode=":" horiz-adv-x="546" d="M84 276q0 68 47.5 116t114.5 48q68 0 116 -48t48 -116q0 -67 -48 -114t-116 -47t-115 47t-47 114zM186 768q0 68 47.5 116t114.5 48q68 0 116 -48t48 -116q0 -67 -48 -114.5t-116 -47.5t-115 47t-47 115z" />
<glyph unicode=";" horiz-adv-x="565" d="M94 186q0 68 47.5 116t114.5 48q66 0 102.5 -43t36.5 -112q0 -62 -30.5 -136.5t-92.5 -151.5t-143 -132q-18 12 -18 35q0 25 16.5 50t36.5 42.5t36.5 43t16.5 50.5q0 23 -27 41q-96 61 -96 149zM193 678q0 68 47 116t114 48q68 0 116 -48t48 -116q0 -67 -48 -114.5 t-116 -47.5q-67 0 -114 47t-47 115z" />
<glyph unicode="&#x3c;" horiz-adv-x="735" d="M41 487l18 84l629 308l-20 -113l-494 -246l397 -196l-24 -117z" />
<glyph unicode="=" horiz-adv-x="1054" d="M66 207l49 229h753l-47 -229h-755zM156 647l49 230h753l-47 -230h-755z" />
<glyph unicode="&#x3e;" horiz-adv-x="704" d="M31 207l28 117l492 196l-397 246l18 113l504 -308l-23 -110z" />
<glyph unicode="?" horiz-adv-x="903" d="M98 164q0 67 48 114.5t116 47.5t115 -47t47 -115t-47.5 -116t-114.5 -48q-68 0 -116 48t-48 116zM113 1104q0 55 24.5 110.5t73.5 106t135.5 82t196.5 31.5q102 0 169 -18.5t100.5 -55t45.5 -77t12 -97.5q0 -81 -22 -147.5t-58.5 -113.5t-81.5 -88t-94.5 -79t-94 -77 t-82.5 -92t-58 -114h-135q0 58 20.5 113t53.5 99.5t72.5 88.5t79 88.5t72.5 91t53.5 105t20.5 121.5q0 71 -32 106t-80 35q-62 0 -113 -48.5t-51 -121.5q0 -42 19.5 -83t58.5 -52q-26 -42 -66 -64t-84 -22q-64 0 -109.5 45t-45.5 127z" />
<glyph unicode="@" horiz-adv-x="1150" d="M-16 336q0 219 94 404.5t254.5 293t349.5 107.5q44 0 82.5 -5.5t85 -26t79 -53.5t55 -94t22.5 -143q0 -130 -50.5 -256t-132 -205t-166.5 -79q-66 0 -90 47q-55 -80 -121 -80q-131 0 -131 141q0 56 19 137t51.5 163.5t86.5 140t114 57.5q49 0 78 -37l8 33l112 -13 l-92 -393q-8 -21 -8 -47q0 -39 27 -39q38 0 76 92t59.5 198.5t21.5 168.5q0 162 -180 162q-87 0 -165 -39t-134 -104.5t-97.5 -151t-62 -179.5t-20.5 -188q0 -129 52.5 -185.5t197.5 -56.5q112 0 183 33t124 103q47 -19 47 -92q0 -99 -113 -163.5t-301 -64.5 q-100 0 -173.5 21t-129.5 67.5t-84 128t-28 197.5zM449 434q0 -63 36 -63q24 0 68 28q0 22 6 43l88 340q-17 17 -37 17q-42 0 -75.5 -44t-51 -107.5t-26 -120t-8.5 -93.5z" />
<glyph unicode="A" horiz-adv-x="1368" d="M18 686q0 105 120 178.5t298 73.5q42 0 107 -6q80 127 165.5 233.5t177 191t187 132t182.5 47.5q100 0 162 -29l-321 -1507h-295l157 743q-137 62 -274 74q-116 -252 -191 -514.5t-75 -421.5q0 -78 28 -114q-30 0 -50 0.5t-51.5 5t-52.5 12.5t-46 24t-39.5 38.5 t-24.5 57.5t-10 79q0 137 83.5 368t217.5 465q-103 -6 -162 -30t-78 -76q8 0 17.5 -21t9.5 -43q0 -36 -33 -58t-82 -22q-57 0 -92 30.5t-35 88.5zM727 905q148 -29 250 -71l119 557q-171 -92 -369 -486z" />
<glyph unicode="B" horiz-adv-x="1312" d="M25 993q0 104 62 204t163.5 174t238.5 119.5t279 45.5q109 0 194.5 -27t137 -73.5t78 -103.5t26.5 -122q0 -94 -53.5 -181.5t-151.5 -143.5q123 -23 182.5 -114t59.5 -216q0 -64 -13 -137t-46 -155t-82 -147t-129 -108t-178 -43q-37 0 -69.5 6.5t-64.5 22t-50.5 47.5 t-18.5 76q0 54 26 119q69 -74 138 -74q53 0 94 35t63.5 91.5t33.5 117.5t11 124q0 261 -194 261q-48 0 -94 -7l-168 -784h-295l278 1303l303 40l-96 -454h12q117 0 206 106t89 226q0 95 -66.5 158t-203.5 63q-73 0 -145 -19t-138.5 -60t-117.5 -98.5t-81 -140.5t-30 -180 q0 -46 7.5 -76.5t14.5 -44.5t7 -18q-108 0 -163.5 44t-55.5 144z" />
<glyph unicode="C" horiz-adv-x="1017" d="M39 471q0 83 11 176t37 197.5t64 202t96.5 187t129.5 156.5t168.5 106.5t208.5 39.5q153 0 247.5 -67t94.5 -207q0 -87 -35 -138t-109 -51q-72 0 -116 53q38 19 66 74.5t28 114.5q0 55 -30 90t-95 35q-109 0 -209.5 -152.5t-158.5 -374t-58 -430.5q0 -60 6.5 -106t23 -87 t44 -68t71 -42.5t101.5 -15.5q120 0 223 53.5t176 151.5l47 -21q-40 -98 -111 -174.5t-153.5 -119.5t-164 -65t-155.5 -22q-232 0 -340 116.5t-108 387.5z" />
<glyph unicode="D" horiz-adv-x="1357" d="M12 995q0 104 61 203t163 173t244 119.5t294 45.5q144 0 252 -47.5t171 -131t93.5 -186.5t30.5 -225q0 -173 -46.5 -349.5t-122.5 -313.5t-182 -223.5t-216 -86.5q-124 0 -250 109l-17 -82h-294l278 1303l303 40l-246 -1148q56 -41 117 -41q71 0 134.5 54t109.5 144.5 t80.5 206.5t51.5 243.5t17 252.5q0 201 -79 294t-220 93q-234 0 -385 -135t-151 -363q0 -46 7 -76.5t14 -44.5t7 -18q-107 0 -163 44.5t-56 145.5z" />
<glyph unicode="E" horiz-adv-x="940" d="M14 324q0 110 44 218.5t132.5 195.5t202.5 116q-125 89 -125 246q0 106 56.5 206.5t161.5 167t231 66.5q128 0 210.5 -67t82.5 -189q0 -91 -44.5 -152t-107.5 -61q-56 0 -96 55q36 12 63 67.5t27 111.5q0 58 -33 86t-80 28q-89 0 -149 -88.5t-60 -200.5q0 -97 51 -171.5 t156 -102.5q-79 -18 -149 -70.5t-116.5 -122t-73.5 -147.5t-27 -149q0 -93 47.5 -150t146.5 -57q103 0 214 56t165 153l47 -21q-81 -177 -246 -281t-354 -104q-96 0 -170 29.5t-118 80t-66.5 114.5t-22.5 137z" />
<glyph unicode="F" horiz-adv-x="940" d="M18 1004q0 84 23.5 160t77 144.5t133 118.5t199 79.5t266.5 29.5q35 0 151.5 -12.5t188.5 -12.5q105 0 184 25q-4 -12 -12.5 -44.5t-14.5 -50.5t-20.5 -46.5t-32 -45.5t-47 -34t-67.5 -25q-124 0 -287 39l-86 -407h299l-33 -152h-299l-166 -770h-295l295 1368 q-63 -2 -109 -23t-82.5 -67.5t-55.5 -130t-19 -203.5q0 -46 7.5 -76.5t14.5 -44.5t7 -18q-110 0 -165 46t-55 153z" />
<glyph unicode="G" horiz-adv-x="1183" d="M39 748q0 118 31 232t93 214.5t147.5 176.5t203 120.5t250.5 44.5q74 0 140 -15.5t121 -47t87.5 -86t32.5 -125.5q0 -87 -35 -138t-109 -51q-34 0 -74.5 12t-66.5 41q34 11 62 68.5t28 99.5q0 14 -2 28.5t-10.5 37t-22.5 39t-41.5 29t-64.5 12.5q-82 0 -165.5 -65 t-146.5 -166t-103 -229.5t-40 -248.5q0 -94 23 -168t78.5 -122t136.5 -48q117 0 174 76l88 389l264 -2l-168 -770q-26 -125 -63 -213t-97 -158t-150.5 -104.5t-213.5 -34.5q-93 0 -159.5 42.5t-96 105t-29.5 135.5q0 112 67.5 196t182.5 84q31 0 53 -1.5t52.5 -9t49 -21.5 t32.5 -40.5t14 -64.5q0 -36 -12 -82q-37 31 -64 42t-59 11q-68 0 -106 -46.5t-38 -108.5q0 -58 33.5 -99t95.5 -41q51 0 85 18t65 74.5t55 159.5l82 367q-53 -30 -114 -48t-90.5 -22t-45.5 -4q-98 0 -174.5 27.5t-126 75t-81.5 115t-45 143t-13 164.5z" />
<glyph unicode="H" horiz-adv-x="1361" d="M25 1004q0 132 107.5 256.5t274.5 200t336 75.5q28 0 82 -4l-131 -610h301l131 610h295l-325 -1532h-295l164 770h-301l-164 -770h-295l297 1393q-137 -58 -212 -172.5t-75 -276.5q0 -46 7.5 -76.5t14.5 -44.5t7 -18q-110 0 -164.5 46t-54.5 153z" />
<glyph unicode="I" horiz-adv-x="768" d="M12 1004q0 132 108 256.5t275 200t336 75.5q28 0 82 -4l-326 -1532h-294l296 1391q-137 -56 -211.5 -170t-74.5 -277q0 -46 7 -76.5t14 -44.5t7 -18q-110 0 -164.5 46t-54.5 153z" />
<glyph unicode="J" horiz-adv-x="1097" d="M35 -135q0 111 67 192.5t183 81.5q31 0 53 -1.5t52 -9t49 -21.5t32.5 -40.5t13.5 -64.5q0 -36 -12 -82q-37 31 -64 42t-59 11q-68 0 -105.5 -44.5t-37.5 -106.5q0 -72 43 -108t96 -36q50 0 81.5 18t60.5 74t53 160l321 1463q-138 -57 -213.5 -171.5t-75.5 -277.5 q0 -46 7.5 -76.5t14.5 -44.5t7 -18q-110 0 -164.5 46t-54.5 153q0 132 108 256.5t275 200t336 75.5h82l-307 -1454q-26 -123 -65.5 -212t-102 -157.5t-155.5 -102.5t-216 -34q-145 0 -224 78.5t-79 210.5z" />
<glyph unicode="K" horiz-adv-x="1230" d="M12 1004q0 132 108 256.5t275 200t336 75.5q28 0 82 -4l-133 -627q49 66 171.5 230.5t207.5 278t86 112.5h215l-569 -656q14 0 37 1t34 1q140 0 197 -58t57 -161q0 -90 -50 -273.5t-50 -244.5q0 -48 21.5 -85t58.5 -50q-123 -35 -203 -35q-160 0 -160 137 q0 66 54.5 262.5t54.5 276.5q0 139 -123 139q-35 0 -68 -8l-164 -772h-294l296 1393q-137 -58 -211.5 -172.5t-74.5 -276.5q0 -46 7 -76.5t14 -44.5t7 -18q-110 0 -164.5 46t-54.5 153z" />
<glyph unicode="L" horiz-adv-x="776" d="M12 983q0 99 64.5 197.5t166 171.5t232 118.5t256.5 45.5q15 0 82 -5l-315 -1470q68 -16 160 -61.5t166.5 -89t173.5 -78.5t188 -35q94 0 172 33q-17 -150 -73 -236t-140 -86q-80 0 -170.5 48t-175.5 116t-172.5 136.5t-191.5 116.5t-204 48q-31 0 -47 -2l305 1419 q-137 -56 -211.5 -169.5t-74.5 -276.5q0 -46 7 -77t14 -45t7 -18q-110 0 -164.5 46t-54.5 153z" />
<glyph unicode="M" horiz-adv-x="1611" d="M137 0l520 1407q-156 -52 -240.5 -169t-84.5 -292q0 -48 7 -79t14 -44t7 -18q-219 0 -219 186q0 128 97.5 255.5t250 208.5t304.5 81q73 0 155 -29l-47 -1079l451 1079h295l-215 -1507h-295l131 920l-385 -920h-281l41 924l-342 -924h-164z" />
<glyph unicode="N" horiz-adv-x="1368" d="M12 1004q0 89 42 182.5t115 171.5t184.5 128t238.5 50q48 0 67.5 -0.5t57.5 -7.5t65 -21l162 -1085l223 1110h295l-325 -1532h-248l-174 1071l-228 -1071h-294l294 1391q-137 -56 -210.5 -170.5t-73.5 -276.5q0 -46 7 -76.5t14 -44.5t7 -18q-110 0 -164.5 46t-54.5 153z " />
<glyph unicode="O" horiz-adv-x="1361" d="M33 977q0 141 115 270.5t307 209t403 79.5q131 0 226.5 -38.5t151 -110t81.5 -164.5t26 -211q0 -87 -13.5 -181t-42.5 -194.5t-71.5 -193.5t-105 -176.5t-137.5 -145t-174.5 -97.5t-210.5 -36q-171 0 -269 98.5t-98 312.5q0 85 16 186.5t45.5 210t78 209t107.5 180 t139 127.5t169 48q60 0 107 -17q-89 -54 -174 -223.5t-135 -370.5t-50 -358q0 -110 29.5 -173.5t89.5 -63.5q100 0 201 145t164 362.5t63 421.5q0 95 -11 157.5t-39.5 110.5t-80 69.5t-131.5 21.5q-118 0 -224.5 -37t-188 -103.5t-129.5 -167t-48 -219.5q0 -48 11 -79 l10 -31q-102 0 -154.5 40.5t-52.5 131.5z" />
<glyph unicode="P" horiz-adv-x="1173" d="M12 1004q0 132 108 256.5t275 200t336 75.5q122 0 216.5 -33t151.5 -90t86 -128t29 -152q0 -99 -41.5 -196t-115 -176t-187.5 -128t-247 -49h-11l-125 -584h-294l278 1303l303 40l-145 -684q75 6 143 55t114 121t73.5 159t27.5 169q0 123 -63 201t-191 78 q-250 0 -390 -131.5t-140 -366.5q0 -46 7 -76.5t14 -44.5t7 -18q-110 0 -164.5 46t-54.5 153z" />
<glyph unicode="Q" horiz-adv-x="1361" d="M33 977q0 141 115 270.5t307 209t403 79.5q131 0 226.5 -38.5t151 -110t81.5 -164.5t26 -211q0 -152 -39.5 -316.5t-131 -329t-220.5 -260.5q53 -79 110.5 -122t145.5 -43q13 0 45 4q-39 -100 -89.5 -138t-121.5 -38q-38 0 -70 8t-55 19.5t-43 32.5t-32.5 38.5t-26 47.5 t-20 49t-17.5 52q-92 -28 -190 -28q-171 0 -269 98.5t-98 312.5q0 85 16 186.5t45.5 210t78 209t107.5 180t139 127.5t169 48q60 0 107 -17q-89 -54 -174 -223.5t-135 -370.5t-50 -358q0 -70 4 -88q78 19 127 19q91 0 164 -56q105 135 178.5 367.5t73.5 449.5 q0 95 -11 157.5t-39.5 110.5t-80 69.5t-131.5 21.5q-118 0 -224.5 -37t-188 -103.5t-129.5 -167t-48 -219.5q0 -48 11 -79l10 -31q-102 0 -154.5 40.5t-52.5 131.5zM545 238q27 -84 98 -84q44 0 78 22q-43 70 -117 70q-32 0 -59 -8z" />
<glyph unicode="R" horiz-adv-x="1230" d="M12 1004q0 132 108 256.5t275 200t336 75.5q227 0 346 -95.5t119 -232.5q0 -96 -59 -192.5t-162 -157.5q141 -40 141 -205q0 -90 -50 -273.5t-50 -244.5q0 -48 21.5 -85t58.5 -50q-123 -35 -203 -35q-160 0 -160 137q0 66 54.5 262.5t54.5 276.5q0 139 -123 139 q-32 0 -68 -8l-164 -772h-294l278 1303l303 40l-100 -473h16q81 0 149.5 57t105 138.5t36.5 161.5q0 94 -56 154.5t-169 60.5q-251 0 -402 -133.5t-151 -364.5q0 -46 7 -76.5t14 -44.5t7 -18q-110 0 -164.5 46t-54.5 153z" />
<glyph unicode="S" horiz-adv-x="1167" d="M55 309q0 80 26.5 145.5t70.5 106t96.5 62.5t107.5 22q30 0 58.5 -6.5t56.5 -21t46 -42t20 -65.5q-44 0 -85 -10.5t-76.5 -32.5t-57 -60.5t-21.5 -89.5q0 -82 52 -139t145 -57q106 0 171.5 72.5t65.5 199.5q0 96 -43.5 184t-105 155.5t-123 132.5t-105 143t-43.5 161 q0 158 136.5 262.5t336.5 104.5q36 0 72 -4t85 -19t85 -40t62 -72.5t26 -110.5q0 -92 -45.5 -149.5t-122.5 -57.5q-57 0 -94 43q41 24 66.5 74.5t25.5 102.5q0 61 -35.5 99t-115.5 38q-88 0 -138.5 -48t-50.5 -139q0 -61 25.5 -114.5t66 -96t89.5 -84.5t98.5 -90t90 -102 t66 -130.5t25.5 -166.5q0 -125 -48 -224.5t-129 -161t-183 -94t-216 -32.5q-91 0 -167.5 20t-137.5 61t-95 110t-34 161z" />
<glyph unicode="T" horiz-adv-x="985" d="M12 1001q0 106 39 198.5t119.5 169t219 121t321.5 44.5q130 0 279.5 -23.5t244.5 -23.5q135 0 238 43q-4 -134 -68 -197t-188 -63q-97 0 -318 45l-283 -1315h-294l290 1356h-24q-69 0 -124 -11t-105 -40t-83.5 -74.5t-53 -118.5t-19.5 -170q0 -46 7 -76.5t14 -44.5t7 -18 q-110 0 -164.5 45.5t-54.5 152.5z" />
<glyph unicode="U" horiz-adv-x="1466" d="M0 993q0 85 42 167t116.5 149t171 118.5t212 80t232.5 28.5q44 0 98 -10q-32 -117 -74.5 -274t-64 -236t-49 -183.5t-40.5 -159.5t-26 -118.5t-17.5 -105t-4.5 -78.5q0 -92 33 -138.5t108 -46.5q43 0 70 4.5t59 19.5t55 46t49.5 81t51 127.5t52 183.5t59.5 251l137 633 h289l-136 -639q-30 -145 -56.5 -247.5t-61 -204t-72 -168t-88.5 -125.5t-113 -92t-141 -51.5t-178 -18.5q-213 0 -304.5 81.5t-91.5 243.5q0 50 7.5 113.5t15.5 112.5t29.5 142t32 136.5t41.5 166.5t42 165l68 270q-170 -45 -266.5 -166.5t-96.5 -304.5q0 -48 7 -79 t14.5 -44t7.5 -18q-108 0 -163.5 44t-55.5 144z" />
<glyph unicode="V" horiz-adv-x="1259" d="M12 1004q0 132 108 256.5t275 200t336 75.5q28 0 82 -4l18 -1260l431 1254h143l-569 -1526h-295l-33 1399q-145 -55 -225 -171.5t-80 -283.5q0 -46 7 -76.5t14 -44.5t7 -18q-110 0 -164.5 46t-54.5 153z" />
<glyph unicode="W" horiz-adv-x="1970" d="M12 1004q0 132 108 256.5t275 200t336 75.5q28 0 82 -4l18 -1260l431 1254h260l18 -1254l430 1254h144l-570 -1526h-295l-24 1042l-389 -1042h-295l-33 1399q-145 -55 -225 -171.5t-80 -283.5q0 -46 7 -76.5t14 -44.5t7 -18q-110 0 -164.5 46t-54.5 153z" />
<glyph unicode="X" horiz-adv-x="1269" d="M12 1004q0 132 108 256.5t275 200t336 75.5q28 0 82 -4l88 -426l238 420h143l-344 -596l192 -930h-325l-109 512l-297 -512h-125l385 680l-151 719q-145 -55 -225 -171.5t-80 -283.5q0 -46 7 -76.5t14 -44.5t7 -18q-110 0 -164.5 46t-54.5 153z" />
<glyph unicode="Y" horiz-adv-x="1269" d="M12 1004q0 132 108 256.5t275 200t336 75.5q28 0 82 -4l178 -733l303 727h136l-398 -895l-135 -631h-328l136 631l-197 768q-145 -55 -225 -171.5t-80 -283.5q0 -46 7 -76.5t14 -44.5t7 -18q-110 0 -164.5 46t-54.5 153z" />
<glyph unicode="Z" horiz-adv-x="1110" d="M23 0l716 1425q-18 0 -81 2.5t-103 2.5q-188 0 -188 -46q13 0 23.5 -16t10.5 -49q0 -61 -37 -89t-83 -28q-55 0 -80 35.5t-25 85.5q0 84 68 148.5t184 64.5h702l-706 -1403q26 0 93.5 -2t103.5 -2q182 0 213 45q-13 0 -25 15.5t-12 48.5q0 60 37 89t86 29 q53 0 78.5 -34.5t25.5 -83.5q0 -86 -74 -162t-188 -76h-739z" />
<glyph unicode="[" horiz-adv-x="819" d="M-49 -512l434 2048h395l-26 -127h-248l-381 -1794h248l-27 -127h-395z" />
<glyph unicode="\" horiz-adv-x="741" d="M86 1536h147l435 -2048h-148z" />
<glyph unicode="]" horiz-adv-x="819" d="M-49 -512l26 127h248l381 1794h-248l27 127h395l-434 -2048h-395z" />
<glyph unicode="^" horiz-adv-x="862" d="M102 1149l435 387h43l122 -387h-65l-123 164l-321 -164h-91z" />
<glyph unicode="_" horiz-adv-x="909" d="M74 0l37 162h716l-34 -162h-719z" />
<glyph unicode="`" horiz-adv-x="411" d="M49 1536h215l60 -387h-154z" />
<glyph unicode="a" horiz-adv-x="1077" d="M-27 317q0 86 20 181.5t63.5 191.5t103.5 172t149 124t191 48q84 0 125 -28.5t41 -75.5v-15l22 109h295l-147 -696q-9 -34 -9 -66q0 -88 84 -88q56 0 98 53.5t68 139.5h86q-33 -96 -77 -167.5t-85.5 -110.5t-90 -63t-84.5 -31t-74 -7q-87 0 -139 48t-62 140 q-61 -85 -133 -136.5t-172 -51.5q-43 0 -82 10.5t-74 35t-61 62t-41 94t-15 127.5zM276 346q0 -45 7.5 -76.5t17.5 -47.5t26 -24.5t26.5 -10t25.5 -1.5q51 0 101 48t69 133l98 462q0 26 -20 52t-64 26q-62 0 -118 -60t-91.5 -148.5t-56.5 -183t-21 -169.5z" />
<glyph unicode="b" horiz-adv-x="909" d="M-14 250q0 62 14 117l219 1026l303 41l-98 -461q94 57 168 57q242 0 242 -350q0 -54 -8 -114t-27.5 -128t-48.5 -131t-74.5 -122t-102 -102t-134 -69t-167.5 -26q-139 0 -212.5 68.5t-73.5 193.5zM279 281q0 -95 108 -95q63 0 120 81t88.5 196.5t31.5 224.5 q0 81 -28.5 139t-80.5 58q-31 0 -68.5 -9t-52.5 -28l-112 -520q-6 -24 -6 -47z" />
<glyph unicode="c" horiz-adv-x="786" d="M-27 313q0 54 8.5 115.5t28.5 133t49 138.5t74 130t99.5 109.5t130 74.5t161.5 28q65 0 111.5 -16t70.5 -44t35 -59.5t11 -68.5q0 -72 -31 -110.5t-78 -38.5q-35 0 -72 24q25 70 25 121q0 84 -57 84q-61 0 -124 -103.5t-101 -244t-38 -254.5q0 -100 35 -136t113 -36 q58 0 108.5 15t96 46.5t78.5 63t79 82.5h70q-229 -379 -563 -379q-153 0 -236.5 79t-83.5 246z" />
<glyph unicode="d" horiz-adv-x="1075" d="M-27 317q0 86 20 181.5t63.5 191.5t103.5 172t149 124t191 48q84 0 125 -28.5t41 -75.5v-8l100 471l303 41l-235 -1106q-9 -34 -9 -66q0 -42 20 -59t64 -17q57 0 99 49t67 132h86q-126 -367 -411 -367q-85 0 -137 45t-64 131q-121 -188 -303 -188q-43 0 -82 10.5t-74 35 t-61 62t-41 94t-15 127.5zM276 346q0 -45 7.5 -76.5t17.5 -47.5t26 -24.5t26.5 -10t25.5 -1.5q48 0 98.5 45t69.5 125v11l100 469q-17 71 -84 71q-62 0 -118 -60t-91.5 -148.5t-56.5 -183t-21 -169.5z" />
<glyph unicode="e" horiz-adv-x="786" d="M-27 313q0 53 8.5 114.5t28 133t48.5 138.5t74 130t100.5 110t131 75t162.5 28q226 0 226 -196q0 -115 -66.5 -212.5t-174 -154.5t-230.5 -65q-5 -77 -5 -82q0 -100 35 -136t113 -36q58 0 108.5 15t96 46.5t78.5 63t79 82.5h70q-229 -379 -563 -379q-153 0 -236.5 79 t-83.5 246zM297 512q117 8 207 109.5t90 228.5q0 84 -51 84q-49 0 -100 -64t-88.5 -159t-57.5 -199z" />
<glyph unicode="f" horiz-adv-x="546" d="M-426 -291q0 55 19 99t47.5 73t78.5 55.5t94 42.5t113 37l248 1170q17 84 49 148t69 101t83.5 60.5t87 31t84.5 7.5q96 0 168.5 -62.5t72.5 -158.5q0 -47 -6 -84h-96q4 46 4 55q0 34 -22.5 52t-55.5 18q-42 0 -83.5 -38t-59.5 -130l-35 -162h150l-15 -82h-151l-236 -1106 q-70 -348 -366 -348q-96 0 -169 62.5t-73 158.5zM-313 -262q0 -25 24 -46.5t58 -21.5q81 0 116 160l27 119q-108 -36 -166.5 -85t-58.5 -126z" />
<glyph unicode="g" horiz-adv-x="1038" d="M-27 317q0 86 20 181.5t63.5 191.5t103.5 172t149 124t191 48q84 0 125 -28.5t41 -75.5v-12l22 106h295l-203 -950q97 34 157 99t101 194h86q-29 -97 -72 -168.5t-93.5 -113t-96.5 -64.5t-100 -37l-31 -148q-70 -348 -369 -348q-99 0 -164 51.5t-65 147.5q0 61 29 112 t81.5 87.5t105 60.5t118.5 45l25 108q-105 -112 -246 -112q-43 0 -82 10.5t-74 35t-61 62t-41 94t-15 127.5zM246 -285q0 -26 18 -46.5t51 -20.5q34 0 67 47t52 135l12 59q-200 -74 -200 -174zM276 346q0 -45 7.5 -76.5t17.5 -47.5t26 -24.5t26.5 -10t25.5 -1.5 q46 0 95.5 43.5t68.5 116.5l104 485q0 26 -20 51t-64 25q-62 0 -118 -60t-91.5 -148.5t-56.5 -183t-21 -169.5z" />
<glyph unicode="h" d="M-78 0l297 1393l303 41l-110 -516q102 114 239 114q104 0 166 -56.5t62 -174.5q0 -89 -49.5 -283.5t-49.5 -245.5q0 -86 82 -86q61 0 98 44.5t74 136.5h86q-33 -97 -73.5 -168t-78.5 -110.5t-81.5 -63t-76.5 -30.5t-71 -7q-125 0 -183 66t-58 165q0 71 46 264t46 258 q0 105 -74 105q-53 0 -94 -52.5t-66 -136.5l-139 -657h-295z" />
<glyph unicode="i" horiz-adv-x="546" d="M-16 233q0 52 16 134l139 657h295l-147 -696q-8 -31 -8 -66q0 -42 19.5 -59t63.5 -17q59 0 110 51t75 130h86q-33 -95 -79 -167t-90.5 -111t-95.5 -63t-89 -31t-76 -7q-98 0 -158.5 61t-60.5 184zM180 1296q0 68 47.5 116t114.5 48q68 0 116 -48t48 -116q0 -67 -48 -114 t-116 -47t-115 47t-47 114z" />
<glyph unicode="j" horiz-adv-x="491" d="M-414 -313q0 199 336 305l219 1032h295l-203 -950q98 34 158 99t101 194h86q-29 -96 -72 -168t-94 -113.5t-97 -64.5t-100 -37l-31 -148q-70 -348 -368 -348q-99 0 -164.5 52t-65.5 147zM-301 -285q0 -26 18.5 -46.5t51.5 -20.5q34 0 66.5 47t51.5 135l13 59 q-201 -74 -201 -174zM164 1298q0 68 47.5 116t114.5 48t115 -48t48 -116q0 -67 -47.5 -114t-115.5 -47t-115 47t-47 114z" />
<glyph unicode="k" horiz-adv-x="1060" d="M-78 0l297 1393l303 41l-153 -721l395 311h203l-410 -285q35 9 68 9q110 0 167.5 -67.5t57.5 -172.5q0 -42 -8 -78l-23 -102q-10 -38 -10 -66q0 -76 80 -76q61 0 98 44.5t74 136.5h86q-127 -379 -377 -379q-127 0 -192.5 60t-65.5 173q0 49 12 107l17 80q8 36 8 75 q0 99 -74 99q-59 0 -151 -76l-107 -506h-295z" />
<glyph unicode="l" horiz-adv-x="546" d="M-16 233q0 52 16 134l219 1026l303 41l-235 -1106q-8 -31 -8 -66q0 -42 19.5 -59t63.5 -17q59 0 110 51t75 130h86q-33 -95 -79 -167t-90.5 -111t-95.5 -63t-89 -31t-76 -7q-98 0 -158.5 61t-60.5 184z" />
<glyph unicode="m" horiz-adv-x="1540" d="M-78 0l217 1024h295l-22 -106q104 116 250 116q179 0 210 -176q112 174 285 174q104 0 165.5 -56.5t61.5 -174.5q0 -89 -49 -283.5t-49 -245.5q0 -86 82 -86q61 0 98 44.5t74 136.5h86q-33 -97 -73.5 -168t-78.5 -110.5t-81.5 -63t-76.5 -30.5t-71 -7q-125 0 -183 66 t-58 165q0 71 46 264t46 258q0 105 -74 105q-53 0 -94 -52.5t-66 -136.5l-139 -657h-295l150 707q6 24 6 51q0 90 -62 90q-56 0 -98.5 -53t-67.5 -138l-139 -657h-295z" />
<glyph unicode="n" d="M-78 0l217 1024h295l-22 -106q102 114 239 114q104 0 166 -56.5t62 -174.5q0 -89 -49.5 -283.5t-49.5 -245.5q0 -86 82 -86q61 0 98 44.5t74 136.5h86q-33 -97 -73.5 -168t-78.5 -110.5t-81.5 -63t-76.5 -30.5t-71 -7q-125 0 -183 66t-58 165q0 71 46 264t46 258 q0 105 -74 105q-53 0 -94 -52.5t-66 -136.5l-139 -657h-295z" />
<glyph unicode="o" horiz-adv-x="899" d="M-29 315q0 63 13 137t39 157t71.5 159t105 138t145.5 99t187 37q263 0 263 -327v-2q6 -2 22 -2q67 0 155 36.5t161 86.5l18 -56q-60 -63 -155 -107t-208 -63q-24 -280 -160.5 -448t-328.5 -168q-152 0 -240 77.5t-88 245.5zM276 342q0 -99 22.5 -132.5t82.5 -33.5 q75 0 143.5 123t93.5 303q-55 13 -55 86q0 85 64 111q-5 67 -21 93t-57 26q-68 0 -133.5 -102.5t-102.5 -236t-37 -237.5z" />
<glyph unicode="p" horiz-adv-x="958" d="M-186 -512l342 1612h295l-33 -154q102 88 239 88q114 0 182 -75.5t68 -247.5q0 -74 -10 -150t-32 -159.5t-61.5 -156t-93 -131t-132.5 -92.5t-175 -34q-131 0 -174 73l-106 -499zM262 213q16 -47 78 -47q61 0 112 39.5t82.5 99.5t53 136t30.5 145.5t9 130.5 q0 170 -103 170q-36 0 -74.5 -26.5t-66.5 -74.5z" />
<glyph unicode="q" horiz-adv-x="995" d="M-27 317q0 86 20 181.5t63.5 191.5t103.5 172t149 124t191 48q84 0 125 -28.5t41 -75.5v-4l20 98h295l-311 -1462l-310 -74l129 612q-105 -112 -243 -112q-43 0 -82 10.5t-74 35t-61 62t-41 94t-15 127.5zM276 346q0 -45 7.5 -76.5t17.5 -47.5t26 -24.5t26.5 -10 t25.5 -1.5q44 0 90.5 39t69.5 107l108 506q-17 69 -84 69q-62 0 -118 -60t-91.5 -148.5t-56.5 -183t-21 -169.5z" />
<glyph unicode="r" horiz-adv-x="770" d="M-78 0l217 1024h295l-26 -127q46 40 76 62.5t77.5 43.5t93.5 21q66 0 104 -45t38 -109q0 -59 -39.5 -104t-108.5 -45q-39 0 -58.5 21t-22 46.5t-11 46.5t-27.5 21q-30 0 -56.5 -11t-44 -24.5t-48.5 -42.5l-164 -778h-295z" />
<glyph unicode="s" horiz-adv-x="782" d="M-66 250q0 67 32 117.5t77 72.5q142 254 252 607l303 40q10 -227 21.5 -388.5t17.5 -232t6 -124.5q0 -47 -8 -78q95 56 147 103h86q-131 -151 -313 -256q-60 -63 -147.5 -93t-174.5 -30q-74 0 -133.5 23t-94.5 61.5t-53 84t-18 93.5zM43 293q0 -73 29.5 -108t95.5 -35 q76 0 127 45.5t51 144.5q0 46 -4.5 95t-15 155.5t-19.5 234.5q-51 -165 -166 -387q47 -24 47 -71q0 -39 -25.5 -70t-64.5 -31q-43 0 -55 27z" />
<glyph unicode="t" horiz-adv-x="546" d="M-16 233q0 52 16 134l123 575h-68l17 82h67l62 283l303 41l-70 -324h123l-16 -82h-123l-131 -614q-8 -31 -8 -66q0 -42 19.5 -59t63.5 -17q59 0 110 51t75 130h86q-33 -95 -79 -167t-90.5 -111t-95.5 -63t-89 -31t-76 -7q-98 0 -158.5 61t-60.5 184z" />
<glyph unicode="u" d="M-16 233q0 52 16 134l139 657h295l-147 -696q-6 -30 -6 -58q0 -84 61 -84q110 0 164 181l139 657h295l-147 -696q-9 -34 -9 -66q0 -42 20 -59t64 -17q57 0 99 49t67 132h86q-33 -96 -77 -167.5t-85.5 -110.5t-90 -63t-84.5 -31t-74 -7q-88 0 -140.5 49t-62.5 145 q-118 -194 -303 -194q-98 0 -158.5 61t-60.5 184z" />
<glyph unicode="v" horiz-adv-x="847" d="M-18 229q0 50 10 99l147 696h295l-147 -696q-11 -57 -11 -74q0 -68 70 -68q58 0 114 49.5t98 127t75 169.5t50 181t17 157q-4 -9 -26 -14.5t-39 -5.5q-34 0 -54 32.5t-20 71.5q0 50 32 80.5t95 30.5q68 0 98.5 -50.5t30.5 -127.5q0 -85 -14.5 -180.5t-43.5 -198 t-77.5 -194.5t-111 -165.5t-149.5 -117t-188 -43.5q-120 0 -185.5 60.5t-65.5 180.5z" />
<glyph unicode="w" horiz-adv-x="1353" d="M-16 233q0 52 16 134l139 657h295l-147 -696q-6 -24 -6 -52q0 -90 61 -90q110 0 164 181l139 657h295l-147 -696q-11 -57 -11 -74q0 -68 70 -68q58 0 114 49.5t98 127t75 169.5t50 181t17 157q-4 -9 -26 -14.5t-39 -5.5q-34 0 -54 32.5t-20 71.5q0 50 32 80.5t95 30.5 q68 0 98.5 -50.5t30.5 -127.5q0 -85 -14.5 -180.5t-43.5 -198t-77.5 -194.5t-111 -165.5t-149.5 -117t-188 -43.5t-163.5 43.5t-81.5 128.5q-115 -172 -291 -172q-98 0 -158.5 61t-60.5 184z" />
<glyph unicode="x" horiz-adv-x="1069" d="M0 367q22 99 49 186.5t70 178.5t93.5 155.5t120.5 105.5t150 41q58 0 101.5 -22.5t67.5 -61t36.5 -77t16.5 -82.5l18 -156q170 190 178 295q-28 -4 -35 -4q-96 0 -96 114q0 51 39.5 76t99.5 25q54 0 84.5 -56.5t30.5 -130.5q0 -90 -61.5 -180t-223.5 -266l19 -143 q12 -98 42 -138.5t85 -40.5q59 0 109.5 51t74.5 130h86q-39 -113 -93.5 -192t-113.5 -117.5t-109.5 -54t-101.5 -15.5q-192 0 -250 356l-282 -344h-148l414 467l-33 229q-17 100 -34 135t-44 35q-66 0 -144.5 -131t-129.5 -368h-86z" />
<glyph unicode="y" horiz-adv-x="995" d="M-16 233q0 52 16 134l139 657h295l-147 -696q-6 -24 -6 -52q0 -90 61 -90q54 0 94.5 45.5t65.5 122.5l143 670h295l-203 -950q97 34 157 99t101 194h86q-29 -97 -72 -168.5t-93.5 -113t-96.5 -64.5t-100 -37l-31 -148q-70 -348 -369 -348q-99 0 -164 51.5t-65 147.5 q0 61 29 112t81.5 87.5t105 60.5t118.5 45l25 110q-105 -114 -246 -114q-98 0 -158.5 61t-60.5 184zM203 -285q0 -26 18 -46.5t51 -20.5q34 0 67 47t52 135l12 59q-200 -74 -200 -174z" />
<glyph unicode="z" horiz-adv-x="876" d="M0 0l522 913h-114q-29 0 -45 -0.5t-34 -3.5t-26 -10t-8 -18q0 -4 3.5 -6t7.5 -3.5t7.5 -10.5t3.5 -25q0 -53 -32.5 -81t-77.5 -28q-38 0 -66 24t-28 66q0 71 67.5 139t169.5 68h527l-502 -866q7 0 65 -6.5t90 -6.5q90 0 97 41q-39 3 -39 43q0 33 30.5 60.5t83.5 27.5 q45 0 68 -27t23 -71q0 -79 -70 -149t-180 -70h-543z" />
<glyph unicode="{" horiz-adv-x="720" d="M61 -287q0 64 30.5 149t69 157.5t81 168t59.5 170.5q6 24 6 45q0 32 -18.5 48t-65.5 16q-25 0 -65 -6l24 117q44 -7 64 -7q38 0 64.5 15t40.5 36t21.5 55.5t9 59.5t1.5 62q0 59 -7 166.5t-7 158.5q0 50 10 103t35 109t61 100t93.5 72t127.5 28h88l-18 -102 q-72 0 -112.5 -10t-73.5 -44q-53 -58 -73 -124t-22 -158l13 -350q-8 -166 -82 -228q24 -27 24 -74q0 -60 -38 -157t-83.5 -184.5t-83.5 -189t-38 -169.5q0 -164 174 -164l-19 -92h-18q-103 0 -149.5 14.5t-84.5 71.5q-39 54 -39 137z" />
<glyph unicode="|" horiz-adv-x="1089" d="M449 -512v2050h190v-2050h-190z" />
<glyph unicode="}" horiz-adv-x="720" d="M61 -510l19 102q72 0 112.5 10t73.5 44q52 58 72 124t22 158l-12 351q8 165 82 227q-24 27 -24 74q0 60 38 156.5t83.5 183.5t83.5 189t38 171q0 164 -174 164l19 92h18q103 0 149 -14.5t84 -71.5q39 -54 39 -137q0 -64 -30.5 -149t-69 -157.5t-80.5 -168t-59 -170.5 q-6 -24 -6 -45q0 -32 18.5 -48t65.5 -16q25 0 65 6l-24 -116q-38 6 -64 6q-38 0 -64.5 -15t-40.5 -36t-21.5 -55.5t-9 -59.5t-1.5 -62q0 -59 7 -166.5t7 -158.5q0 -50 -10 -103t-35 -109t-61 -100t-93.5 -72t-127.5 -28h-89z" />
<glyph unicode="~" horiz-adv-x="882" d="M100 1192q49 98 137 149.5t205 51.5q77 0 179.5 -34t158.5 -34q82 0 129 47l13 -2q-16 -75 -116.5 -140t-213.5 -65q-71 0 -180 38t-164 38q-76 0 -135 -53z" />
<glyph unicode="&#xa1;" horiz-adv-x="448" d="M-125 -508l266 961h174l-145 -961h-295zM121 762q0 68 47.5 116t114.5 48t115 -48t48 -116q0 -67 -47.5 -114.5t-115.5 -47.5q-67 0 -114.5 47t-47.5 115z" />
<glyph unicode="&#xa2;" horiz-adv-x="825" d="M63 647q0 141 48 262t146.5 206t231.5 104l46 251h118l-55 -249q81 -5 132.5 -38.5t51.5 -101.5q0 -33 -10 -67h-117q11 46 11 57q0 70 -76 70h-10l-156 -703q6 -2 31 -2q73 0 133.5 35.5t136.5 103.5q-24 -133 -103.5 -202.5t-228.5 -75.5l-78 -352h-55l64 354 q-113 18 -187 108.5t-74 239.5zM279 653q0 -128 75 -184l113 625q-82 -66 -135 -191t-53 -250z" />
<glyph unicode="&#xa3;" horiz-adv-x="952" d="M51 686q69 135 215 182l148 605l307 63l-164 -678q8 -2 32.5 -10.5t35.5 -11.5t31.5 -8t38 -7t36.5 -2q82 0 129 47l12 -2q-16 -75 -116 -140t-213 -65h-33l-115 -473q31 3 82.5 4.5t87 5t85 14.5t105.5 39.5t119 74.5q-18 -150 -73.5 -237t-138.5 -87h-605l176 733 q-5 0 -16 1t-18 1q-77 0 -136 -53z" />
<glyph unicode="&#xa4;" horiz-adv-x="1024" d="M139 1008l78 73l115 -114q82 61 186 61q105 0 182 -59l115 114l74 -73l-113 -113q62 -83 62 -188q0 -104 -62 -187l113 -112l-74 -74l-113 113q-78 -60 -184 -60q-105 0 -188 62l-115 -115l-74 74l115 114q-59 77 -59 183q0 107 59 184zM313 709q0 -86 59.5 -145.5 t145.5 -59.5t145.5 59.5t59.5 145.5t-59.5 145t-145.5 59t-145.5 -59t-59.5 -145z" />
<glyph unicode="&#xa5;" horiz-adv-x="970" d="M39 291l29 102h196l29 133h-203l29 103h196v2l-229 905h336l180 -739l307 739h135l-401 -905v-2h268l-28 -103h-262l-29 -133h268l-29 -102h-262l-61 -291h-328l62 291h-203z" />
<glyph unicode="&#xa6;" horiz-adv-x="1089" d="M449 455h190v-967h-190v967zM449 616v922h190v-922h-190z" />
<glyph unicode="&#xa7;" horiz-adv-x="1110" d="M16 158q0 112 55.5 182t141.5 70q38 0 71.5 -18t50.5 -36t40 -49q-92 -7 -129 -42t-37 -113q0 -82 39 -121t129 -39q78 0 121 48.5t43 149.5q0 68 -20.5 125.5t-53 99t-71.5 78.5t-78.5 71t-72 69.5t-53 82t-20.5 99.5q0 95 59 170t154 111q-10 52 -10 86 q0 88 38.5 157.5t101.5 111.5t138.5 63.5t155.5 21.5q29 0 57.5 -2.5t68.5 -14.5t69 -31.5t50 -57.5t21 -89q0 -73 -36.5 -119t-98.5 -46q-46 0 -76 32q34 20 54 59.5t20 82.5q0 46 -29 78t-86 32q-82 0 -137 -65.5t-55 -153.5q0 -51 22.5 -96t58 -79.5t79 -68t86.5 -71 t78.5 -79t58 -99.5t22.5 -127q0 -124 -63 -221t-174 -121v-7q0 -178 -117.5 -280.5t-327.5 -102.5q-43 0 -82 4.5t-88.5 21.5t-84.5 44.5t-59 78.5t-24 120zM389 924q0 -40 25 -80t63 -74t85.5 -77t91 -85.5t80.5 -104t52 -128.5q39 48 39 129q0 67 -29 123.5t-76.5 100 t-98.5 81.5t-106 87.5t-87 98.5q-39 -24 -39 -71z" />
<glyph unicode="&#xa8;" horiz-adv-x="802" d="M115 1298q0 52 36 88.5t89 36.5q51 0 88 -37t37 -88q0 -53 -36.5 -88.5t-88.5 -35.5q-54 0 -89.5 35t-35.5 89zM483 1298q0 52 36 88.5t89 36.5q51 0 88 -37t37 -88q0 -53 -36.5 -88.5t-88.5 -35.5q-54 0 -89.5 35t-35.5 89z" />
<glyph unicode="&#xa9;" horiz-adv-x="1202" d="M104 678q0 144 67 264.5t181 190t248 69.5q99 0 190.5 -40.5t158.5 -109.5t107 -166.5t40 -205.5q0 -143 -68 -264.5t-182 -190.5t-246 -69q-204 0 -350 153t-146 369zM199 678q0 -183 118.5 -309.5t286.5 -126.5q167 0 285.5 126.5t118.5 309.5t-118.5 309.5 t-285.5 126.5q-168 0 -286.5 -126.5t-118.5 -309.5zM311 688q0 129 88.5 216t214.5 87q96 -4 165 -57.5t89 -136.5l-96 -37q-8 23 -11.5 33t-16 31.5t-26.5 31.5t-40.5 19.5t-59.5 9.5q-83 0 -138.5 -48.5t-55.5 -138.5q0 -92 56 -155.5t138 -63.5q48 0 89.5 24.5t64.5 67.5 l90 -59q-42 -66 -109.5 -102.5t-142.5 -36.5q-124 0 -211.5 93.5t-87.5 221.5z" />
<glyph unicode="&#xaa;" horiz-adv-x="706" d="M88 1096q0 60 9 116t32 111.5t57.5 97t89 67t123.5 25.5q40 0 80 -28l6 31h170l-86 -377q-1 -4 -3.5 -16.5t-2.5 -20.5q0 -41 43 -41q24 0 31 4q-15 -45 -38.5 -69t-41 -28.5t-43.5 -4.5q-96 0 -119 81q-73 -88 -162 -88q-77 0 -111 41t-34 99zM248 1126q0 -77 69 -77 q35 0 74 53l8 37l68 293q-23 20 -59 20q-43 0 -80.5 -50.5t-58.5 -125.5t-21 -150z" />
<glyph unicode="&#xab;" horiz-adv-x="1206" d="M41 487l18 84l629 308l-20 -113l-494 -246l397 -196l-24 -117zM471 487l18 84l629 308l-20 -113l-494 -246l397 -196l-24 -117z" />
<glyph unicode="&#xac;" horiz-adv-x="909" d="M39 455l37 161h741l-104 -512h-232l72 351h-514z" />
<glyph unicode="&#xad;" horiz-adv-x="593" d="M39 455l37 161h409l-34 -161h-412z" />
<glyph unicode="&#xae;" horiz-adv-x="1132" d="M70 684q0 144 66.5 264.5t180.5 190t248 69.5q99 0 190.5 -40.5t158.5 -109.5t107 -166.5t40 -205.5q0 -143 -68 -264.5t-182 -190.5t-246 -69q-204 0 -349.5 153t-145.5 369zM164 684q0 -183 118.5 -309.5t286.5 -126.5q167 0 285.5 126.5t118.5 309.5t-118.5 309.5 t-285.5 126.5q-168 0 -286.5 -126.5t-118.5 -309.5zM360 393l2 596h193q112 0 179 -44.5t67 -127.5q0 -56 -33 -98t-88 -60l133 -256l-96 -14l-127 256h-135v-252h-95zM455 723h106q36 0 65.5 6t55 27.5t25.5 56.5q0 49 -45 70.5t-105 21.5h-102v-182z" />
<glyph unicode="&#xb0;" horiz-adv-x="643" d="M76 999q0 121 39 220t115.5 159t177.5 60q88 0 127.5 -58t39.5 -174q0 -68 -20.5 -142.5t-57 -142t-96 -111.5t-129.5 -44q-113 0 -154.5 57t-41.5 176zM223 975q0 -133 56 -133q77 0 125.5 117t48.5 278q0 129 -52 129q-50 0 -106.5 -83.5t-67.5 -219.5q-4 -50 -4 -88z " />
<glyph unicode="&#xb1;" horiz-adv-x="1091" d="M63 139l37 162h752l-35 -162h-754zM170 633l49 229h262l56 250h231l-55 -250h260l-47 -229h-262l-56 -252h-231l55 252h-262z" />
<glyph unicode="&#xb2;" horiz-adv-x="614" d="M6 739q0 66 40.5 129.5t97.5 117.5t114.5 111t98 131.5t40.5 155.5q0 40 -21.5 65.5t-49.5 25.5q-56 0 -76.5 -22t-20.5 -67q0 -24 11 -47t34 -28q-45 -39 -92 -39q-37 0 -60.5 26t-23.5 74q0 65 61 113.5t185 48.5q225 0 225 -176q0 -69 -34 -131.5t-88 -111.5t-110 -91 t-111 -88t-81 -84h9q38 0 114 -10.5t117 -10.5q16 0 29 1t26 6.5t19.5 7t20.5 12.5t17 13.5t21 18.5t21 19q0 -37 -0.5 -57t-3.5 -47t-8.5 -40.5t-15.5 -29.5t-25 -23.5t-37 -12.5t-52 -5q-67 0 -150 20.5t-143 20.5q-14 0 -31.5 -6t-36.5 -15.5t-26 -11.5q-4 28 -4 37z" />
<glyph unicode="&#xb3;" horiz-adv-x="647" d="M27 879q0 79 36.5 123.5t104.5 44.5q81 0 96 -56q-34 -4 -56.5 -16t-32 -32t-12.5 -38t-3 -45q0 -52 26 -71t78 -19q64 0 105 58t41 135q0 68 -38.5 124.5t-115.5 81.5q96 23 149.5 88.5t53.5 131.5q0 38 -20 62t-56 24q-107 0 -107 -89q0 -24 11.5 -47t34.5 -28 q-45 -39 -93 -39q-37 0 -60.5 26t-23.5 74q0 64 66 113t190 49q100 0 154.5 -46t54.5 -116q0 -59 -40 -114t-121 -91q147 -44 147 -180q0 -105 -89.5 -196t-215.5 -91q-44 0 -83 6t-83.5 23t-71 55.5t-26.5 94.5z" />
<glyph unicode="&#xb4;" horiz-adv-x="647" d="M246 1149l186 387h215l-248 -387h-153z" />
<glyph unicode="&#xb5;" d="M-150 -340l144 676l6 31l139 657h295l-147 -696q-6 -24 -6 -52q0 -90 61 -90q110 0 164 181l139 657h295l-147 -696q-9 -34 -9 -66q0 -42 20 -59t64 -17q57 0 99 49t67 132h86q-126 -367 -411 -367q-87 0 -139 46.5t-62 137.5q-113 -184 -293 -184l-55 -266z" />
<glyph unicode="&#xb6;" horiz-adv-x="1110" d="M147 1006q0 77 20.5 152.5t63.5 143.5t102.5 119.5t143.5 82t182 30.5q80 0 146.5 -18.5t119.5 -57.5t83 -106t30 -156q0 -59 -16 -147l-260 -1215h-193l166 778q-38 -12 -88 -22l-158 -756h-192l158 756q-148 28 -228 146t-80 270zM670 694h12q45 0 72 8l98 465 q12 59 12 101q0 88 -47 129z" />
<glyph unicode="&#xb7;" horiz-adv-x="888" d="M246 547q0 82 57 140t139 58t140.5 -58t58.5 -140t-58.5 -139.5t-140.5 -57.5t-139 57.5t-57 139.5z" />
<glyph unicode="&#xb8;" horiz-adv-x="464" d="M0 -389q35 65 82 65q44 0 84 -27.5t67 -27.5q26 0 44 26.5t18 59.5q0 32 -20 53t-60 21q-48 0 -106 -25l108 303l72 -47l-60 -147q69 16 109 16q127 0 127 -102q0 -104 -74 -164.5t-172 -60.5q-70 0 -117.5 14t-101.5 43z" />
<glyph unicode="&#xb9;" horiz-adv-x="444" d="M45 707l158 690h-113l14 51q146 0 302 86l-189 -827h-172z" />
<glyph unicode="&#xba;" horiz-adv-x="673" d="M86 1137q0 191 89 290t222 99q45 0 79 -13.5t34 -35.5q0 -37 -53 -54q-14 39 -54 39q-41 0 -73.5 -36t-50 -89t-26.5 -103t-9 -87q0 -47 22 -65.5t62 -18.5q35 0 62 35.5t40.5 83t18.5 102.5q-31 9 -31 45q0 30 25.5 57t54.5 27q23 0 31 -8t8 -31q11 6 20.5 14t14 13.5 t15.5 18.5t17 20l12 -23q-10 -28 -16.5 -43.5t-23.5 -38.5t-39 -35q-7 -159 -90 -252.5t-175 -93.5q-98 0 -142 43t-44 140z" />
<glyph unicode="&#xbb;" horiz-adv-x="1200" d="M31 207l28 117l492 196l-397 246l18 113l504 -308l-23 -110zM485 207l29 117l492 196l-398 246l19 113l503 -308l-22 -110z" />
<glyph unicode="&#xbc;" horiz-adv-x="1411" d="M143 461l158 690h-113l15 51q145 0 301 86l-189 -827h-172zM285 -338l540 1874h148l-541 -1874h-147zM766 307q14 43 59.5 129.5t79 171t33.5 156.5q0 40 -8 67q58 0 95.5 -26.5t37.5 -77.5q0 -63 -28 -120.5t-79 -124.5t-67 -95h184l96 422l177 22l-103 -444h78l-25 -80 h-71l-70 -305h-170l70 305h-289z" />
<glyph unicode="&#xbd;" horiz-adv-x="1382" d="M143 461l158 690h-113l15 51q145 0 301 86l-189 -827h-172zM274 -338l541 1874h148l-541 -1874h-148zM750 43q0 48 21.5 95t56 86.5t76.5 79.5t83.5 82t76 86.5t56 100t21.5 115.5q0 39 -22 64.5t-50 25.5q-56 0 -76 -21.5t-20 -66.5q0 -24 11.5 -47.5t33.5 -28.5 q-45 -39 -92 -39q-37 0 -60.5 26.5t-23.5 74.5q0 66 60.5 114t184.5 48q226 0 226 -176q0 -69 -34 -131.5t-88 -111.5t-110 -91t-111 -88t-81 -84h8q37 0 114 -10.5t117 -10.5q16 0 29 1t26 6.5t19.5 7t20.5 12.5t17 13.5t21 18.5t21 19q0 -52 -1.5 -77.5t-8.5 -57.5 t-21.5 -46t-41.5 -24t-68 -10q-67 0 -150 20.5t-143 20.5q-14 0 -31.5 -6t-36.5 -15.5t-26 -11.5q-4 28 -4 37z" />
<glyph unicode="&#xbe;" horiz-adv-x="1677" d="M125 633q0 79 36.5 123.5t104.5 44.5q81 0 96 -56q-34 -4 -56.5 -16t-32 -32t-12.5 -38t-3 -45q0 -52 26 -71t78 -19q64 0 105 58t41 135q0 68 -38.5 125t-115.5 82q96 23 149.5 88.5t53.5 130.5q0 38 -20 62t-56 24q-57 0 -81.5 -22t-24.5 -66q0 -24 11.5 -47.5 t33.5 -28.5q-45 -39 -92 -39q-37 0 -60.5 26t-23.5 74q0 64 66 113t190 49q100 0 154.5 -46t54.5 -116q0 -59 -40.5 -113t-121.5 -91q75 -22 111 -70t36 -111q0 -105 -89.5 -195.5t-215.5 -90.5q-264 0 -264 178zM522 -338l541 1874h147l-540 -1874h-148zM1010 307 q14 43 59.5 129.5t79 171t33.5 156.5q0 40 -8 67q58 0 95.5 -26.5t37.5 -77.5q0 -63 -28 -120.5t-79 -124.5t-67 -95h184l96 422l176 22l-102 -444h78l-25 -80h-72l-69 -305h-170l69 305h-288z" />
<glyph unicode="&#xbf;" horiz-adv-x="899" d="M25 -262q0 78 20 142.5t55 111.5t77.5 88.5t91.5 81.5t93.5 80t87 94.5t68.5 116.5h135q0 -58 -20.5 -113t-53.5 -99.5t-72.5 -88.5t-79 -88.5t-72.5 -91t-53.5 -105t-20.5 -121.5q0 -71 32 -106t80 -35q62 0 113 48.5t51 121.5q0 42 -19.5 83t-58.5 52q26 42 66 64 t84 22q64 0 109.5 -45t45.5 -127q0 -55 -24.5 -110.5t-73.5 -106t-135.5 -82t-196.5 -31.5q-94 0 -160.5 20t-102 55.5t-51 77t-15.5 91.5zM473 762v2q0 68 47.5 116t114.5 48t115.5 -48t48.5 -116v-2q0 -67 -48 -114.5t-116 -47.5q-67 0 -114.5 47t-47.5 115z" />
<glyph unicode="&#xc0;" horiz-adv-x="1368" d="M18 686q0 105 120 178.5t298 73.5q42 0 107 -6q80 127 165.5 233.5t177 191t187 132t182.5 47.5q100 0 162 -29l-321 -1507h-295l157 743q-137 62 -274 74q-116 -252 -191 -514.5t-75 -421.5q0 -78 28 -114q-30 0 -50 0.5t-51.5 5t-52.5 12.5t-46 24t-39.5 38.5 t-24.5 57.5t-10 79q0 137 83.5 368t217.5 465q-103 -6 -162 -30t-78 -76q8 0 17.5 -21t9.5 -43q0 -36 -33 -58t-82 -22q-57 0 -92 30.5t-35 88.5zM727 905q148 -29 250 -71l119 557q-171 -92 -369 -486zM895 2048h215l59 -387h-153z" />
<glyph unicode="&#xc1;" horiz-adv-x="1368" d="M18 686q0 105 120 178.5t298 73.5q42 0 107 -6q80 127 165.5 233.5t177 191t187 132t182.5 47.5q100 0 162 -29l-321 -1507h-295l157 743q-137 62 -274 74q-116 -252 -191 -514.5t-75 -421.5q0 -78 28 -114q-30 0 -50 0.5t-51.5 5t-52.5 12.5t-46 24t-39.5 38.5 t-24.5 57.5t-10 79q0 137 83.5 368t217.5 465q-103 -6 -162 -30t-78 -76q8 0 17.5 -21t9.5 -43q0 -36 -33 -58t-82 -22q-57 0 -92 30.5t-35 88.5zM727 905q148 -29 250 -71l119 557q-171 -92 -369 -486zM995 1661l187 387h215l-248 -387h-154z" />
<glyph unicode="&#xc2;" horiz-adv-x="1368" d="M18 686q0 105 120 178.5t298 73.5q42 0 107 -6q80 127 165.5 233.5t177 191t187 132t182.5 47.5q100 0 162 -29l-321 -1507h-295l157 743q-137 62 -274 74q-116 -252 -191 -514.5t-75 -421.5q0 -78 28 -114q-30 0 -50 0.5t-51.5 5t-52.5 12.5t-46 24t-39.5 38.5 t-24.5 57.5t-10 79q0 137 83.5 368t217.5 465q-103 -6 -162 -30t-78 -76q8 0 17.5 -21t9.5 -43q0 -36 -33 -58t-82 -22q-57 0 -92 30.5t-35 88.5zM727 905q148 -29 250 -71l119 557q-171 -92 -369 -486zM834 1661l434 387h43l123 -387h-66l-123 164l-321 -164h-90z" />
<glyph unicode="&#xc3;" horiz-adv-x="1368" d="M18 686q0 105 120 178.5t298 73.5q42 0 107 -6q80 127 165.5 233.5t177 191t187 132t182.5 47.5q100 0 162 -29l-321 -1507h-295l157 743q-137 62 -274 74q-116 -252 -191 -514.5t-75 -421.5q0 -78 28 -114q-30 0 -50 0.5t-51.5 5t-52.5 12.5t-46 24t-39.5 38.5 t-24.5 57.5t-10 79q0 137 83.5 368t217.5 465q-103 -6 -162 -30t-78 -76q8 0 17.5 -21t9.5 -43q0 -36 -33 -58t-82 -22q-57 0 -92 30.5t-35 88.5zM727 905q148 -29 250 -71l119 557q-171 -92 -369 -486zM838 1704q49 98 137 149.5t205 51.5q77 0 179.5 -34t158.5 -34 q82 0 129 47l12 -2q-16 -75 -116.5 -140t-213.5 -65q-71 0 -180 38t-164 38q-76 0 -135 -53z" />
<glyph unicode="&#xc4;" horiz-adv-x="1368" d="M18 686q0 105 120 178.5t298 73.5q42 0 107 -6q80 127 165.5 233.5t177 191t187 132t182.5 47.5q100 0 162 -29l-321 -1507h-295l157 743q-137 62 -274 74q-116 -252 -191 -514.5t-75 -421.5q0 -78 28 -114q-30 0 -50 0.5t-51.5 5t-52.5 12.5t-46 24t-39.5 38.5 t-24.5 57.5t-10 79q0 137 83.5 368t217.5 465q-103 -6 -162 -30t-78 -76q8 0 17.5 -21t9.5 -43q0 -36 -33 -58t-82 -22q-57 0 -92 30.5t-35 88.5zM727 905q148 -29 250 -71l119 557q-171 -92 -369 -486zM881 1810q0 52 36 88.5t89 36.5q51 0 87.5 -37t36.5 -88 q0 -53 -36 -88.5t-88 -35.5q-54 0 -89.5 35t-35.5 89zM1249 1810q0 52 36 88.5t89 36.5q51 0 88 -37t37 -88q0 -53 -36.5 -88.5t-88.5 -35.5q-54 0 -89.5 35t-35.5 89z" />
<glyph unicode="&#xc5;" horiz-adv-x="1368" d="M18 686q0 105 120 178.5t298 73.5q42 0 107 -6q80 127 165.5 233.5t177 191t187 132t182.5 47.5q100 0 162 -29l-321 -1507h-295l157 743q-137 62 -274 74q-116 -252 -191 -514.5t-75 -421.5q0 -78 28 -114q-30 0 -50 0.5t-51.5 5t-52.5 12.5t-46 24t-39.5 38.5 t-24.5 57.5t-10 79q0 137 83.5 368t217.5 465q-103 -6 -162 -30t-78 -76q8 0 17.5 -21t9.5 -43q0 -36 -33 -58t-82 -22q-57 0 -92 30.5t-35 88.5zM727 905q148 -29 250 -71l119 557q-171 -92 -369 -486zM993 1786q0 29 10.5 60.5t30 60t54.5 47t79 18.5q72 0 110 -44 t38 -113q0 -74 -43.5 -123.5t-134.5 -49.5q-65 0 -104.5 41.5t-39.5 102.5zM1075 1790q0 -76 70 -76q46 0 70 25t24 69q0 28 -2.5 45t-18.5 34.5t-47 17.5q-49 0 -72.5 -35t-23.5 -80z" />
<glyph unicode="&#xc6;" horiz-adv-x="1564" d="M18 696q0 61 55.5 116t148 87.5t196.5 32.5q54 0 121 -6q81 129 166 236.5t177 193.5t187.5 134t183.5 48q53 0 173.5 -20.5t195.5 -20.5q127 0 240 39q-2 -6 -10.5 -34.5t-12.5 -39.5t-15 -36t-20 -37t-26 -30t-35 -26.5t-44 -15t-57 -6.5q-25 0 -50.5 3t-43 6.5 t-43.5 12t-37 12.5t-40.5 16t-38.5 15l-111 -518h317l-41 -151h-309l-104 -490h458l-43 -217h-755l157 743q-144 65 -276 74q-115 -252 -189.5 -513t-74.5 -421q0 -36 4.5 -59.5t9.5 -31t9.5 -13.5t4.5 -10q-40 2 -60.5 3.5t-55 7t-52.5 14t-41.5 25t-35.5 40t-20.5 59 t-8.5 80.5q0 131 83.5 359t217.5 460q-100 -7 -159 -30.5t-81 -75.5q8 0 17.5 -21t9.5 -43q0 -35 -31.5 -57.5t-93.5 -22.5q-49 0 -83 32.5t-34 96.5zM723 903q143 -26 254 -69l119 557q-178 -97 -373 -488z" />
<glyph unicode="&#xc7;" horiz-adv-x="1017" d="M39 471q0 83 11 176t37 197.5t64 202t96.5 187t129.5 156.5t168.5 106.5t208.5 39.5q153 0 247.5 -67t94.5 -207q0 -87 -35 -138t-109 -51q-72 0 -116 53q38 19 66 74.5t28 114.5q0 55 -30 90t-95 35q-109 0 -209.5 -152.5t-158.5 -374t-58 -430.5q0 -60 6.5 -106t23 -87 t44 -68t71 -42.5t101.5 -15.5q120 0 223 53.5t176 151.5l47 -21q-35 -88 -96 -159t-133.5 -115t-146 -69.5t-146.5 -33.5l-43 -106q69 16 108 16q127 0 127 -102q0 -104 -73.5 -164.5t-171.5 -60.5q-71 0 -118.5 14.5t-101.5 42.5q35 65 82 65q44 0 84.5 -27.5t67.5 -27.5 q26 0 43.5 26.5t17.5 59.5q0 32 -19.5 53t-59.5 21q-50 0 -107 -25l76 211q-219 6 -320.5 123t-101.5 381z" />
<glyph unicode="&#xc8;" horiz-adv-x="940" d="M14 324q0 110 44 218.5t132.5 195.5t202.5 116q-125 89 -125 246q0 106 56.5 206.5t161.5 167t231 66.5q128 0 210.5 -67t82.5 -189q0 -91 -44.5 -152t-107.5 -61q-56 0 -96 55q36 12 63 67.5t27 111.5q0 58 -33 86t-80 28q-89 0 -149 -88.5t-60 -200.5q0 -97 51 -171.5 t156 -102.5q-79 -18 -149 -70.5t-116.5 -122t-73.5 -147.5t-27 -149q0 -93 47.5 -150t146.5 -57q103 0 214 56t165 153l47 -21q-81 -177 -246 -281t-354 -104q-96 0 -170 29.5t-118 80t-66.5 114.5t-22.5 137zM516 2048h215l60 -387h-154z" />
<glyph unicode="&#xc9;" horiz-adv-x="940" d="M14 324q0 110 44 218.5t132.5 195.5t202.5 116q-125 89 -125 246q0 106 56.5 206.5t161.5 167t231 66.5q128 0 210.5 -67t82.5 -189q0 -91 -44.5 -152t-107.5 -61q-56 0 -96 55q36 12 63 67.5t27 111.5q0 58 -33 86t-80 28q-89 0 -149 -88.5t-60 -200.5q0 -97 51 -171.5 t156 -102.5q-79 -18 -149 -70.5t-116.5 -122t-73.5 -147.5t-27 -149q0 -93 47.5 -150t146.5 -57q103 0 214 56t165 153l47 -21q-81 -177 -246 -281t-354 -104q-96 0 -170 29.5t-118 80t-66.5 114.5t-22.5 137zM676 1661l186 387h215l-248 -387h-153z" />
<glyph unicode="&#xca;" horiz-adv-x="940" d="M14 324q0 110 44 218.5t132.5 195.5t202.5 116q-125 89 -125 246q0 106 56.5 206.5t161.5 167t231 66.5q128 0 210.5 -67t82.5 -189q0 -91 -44.5 -152t-107.5 -61q-56 0 -96 55q36 12 63 67.5t27 111.5q0 58 -33 86t-80 28q-89 0 -149 -88.5t-60 -200.5q0 -97 51 -171.5 t156 -102.5q-79 -18 -149 -70.5t-116.5 -122t-73.5 -147.5t-27 -149q0 -93 47.5 -150t146.5 -57q103 0 214 56t165 153l47 -21q-81 -177 -246 -281t-354 -104q-96 0 -170 29.5t-118 80t-66.5 114.5t-22.5 137zM414 1661l434 387h43l123 -387h-66l-123 164l-321 -164h-90z " />
<glyph unicode="&#xcb;" horiz-adv-x="940" d="M14 324q0 110 44 218.5t132.5 195.5t202.5 116q-125 89 -125 246q0 106 56.5 206.5t161.5 167t231 66.5q128 0 210.5 -67t82.5 -189q0 -91 -44.5 -152t-107.5 -61q-56 0 -96 55q36 12 63 67.5t27 111.5q0 58 -33 86t-80 28q-89 0 -149 -88.5t-60 -200.5q0 -97 51 -171.5 t156 -102.5q-79 -18 -149 -70.5t-116.5 -122t-73.5 -147.5t-27 -149q0 -93 47.5 -150t146.5 -57q103 0 214 56t165 153l47 -21q-81 -177 -246 -281t-354 -104q-96 0 -170 29.5t-118 80t-66.5 114.5t-22.5 137zM487 1810q0 52 36 88.5t89 36.5q51 0 88 -37t37 -88 q0 -53 -36.5 -88.5t-88.5 -35.5q-54 0 -89.5 35t-35.5 89zM856 1810q0 52 36 88.5t89 36.5q51 0 88 -37t37 -88q0 -53 -36.5 -88.5t-88.5 -35.5q-54 0 -89.5 35t-35.5 89z" />
<glyph unicode="&#xcc;" horiz-adv-x="768" d="M12 1004q0 132 108 256.5t275 200t336 75.5q28 0 82 -4l-326 -1532h-294l296 1391q-137 -56 -211.5 -170t-74.5 -277q0 -46 7 -76.5t14 -44.5t7 -18q-110 0 -164.5 46t-54.5 153zM350 2048h215l60 -387h-154z" />
<glyph unicode="&#xcd;" horiz-adv-x="768" d="M12 1004q0 132 108 256.5t275 200t336 75.5q28 0 82 -4l-326 -1532h-294l296 1391q-137 -56 -211.5 -170t-74.5 -277q0 -46 7 -76.5t14 -44.5t7 -18q-110 0 -164.5 46t-54.5 153zM551 1661l186 387h215l-247 -387h-154z" />
<glyph unicode="&#xce;" horiz-adv-x="768" d="M12 1004q0 132 108 256.5t275 200t336 75.5q28 0 82 -4l-326 -1532h-294l296 1391q-137 -56 -211.5 -170t-74.5 -277q0 -46 7 -76.5t14 -44.5t7 -18q-110 0 -164.5 46t-54.5 153zM309 1661l434 387h43l123 -387h-65l-123 164l-322 -164h-90z" />
<glyph unicode="&#xcf;" horiz-adv-x="768" d="M12 1004q0 132 108 256.5t275 200t336 75.5q28 0 82 -4l-326 -1532h-294l296 1391q-137 -56 -211.5 -170t-74.5 -277q0 -46 7 -76.5t14 -44.5t7 -18q-110 0 -164.5 46t-54.5 153zM342 1810q0 52 36 88.5t89 36.5q51 0 88 -37t37 -88q0 -53 -36.5 -88.5t-88.5 -35.5 q-54 0 -89.5 35t-35.5 89zM711 1810q0 52 36 88.5t89 36.5q51 0 88 -37t37 -88q0 -53 -36.5 -88.5t-88.5 -35.5q-54 0 -89.5 35t-35.5 89z" />
<glyph unicode="&#xd0;" horiz-adv-x="1357" d="M12 1004q0 132 108 256.5t275 200t336 75.5q590 0 590 -553q0 -261 -78 -494.5t-209.5 -374.5t-279.5 -141q-124 0 -250 109l-17 -82h-294l151 707h-80l41 151h72l94 445l303 40l-104 -485h161l-40 -151h-154l-109 -512q56 -41 117 -41q88 0 164 83t125 213t76.5 285 t27.5 305q0 82 -6.5 141t-24.5 110.5t-49.5 83t-81.5 49.5t-120 18q-251 0 -402 -133.5t-151 -364.5q0 -46 7 -76.5t14 -44.5t7 -18q-110 0 -164.5 46t-54.5 153z" />
<glyph unicode="&#xd1;" horiz-adv-x="1404" d="M12 1004q0 89 42 182.5t115 171.5t184.5 128t238.5 50q48 0 67.5 -0.5t57.5 -7.5t65 -21l162 -1085l223 1110h295l-325 -1532h-248l-174 1071l-228 -1071h-294l294 1391q-137 -56 -210.5 -170.5t-73.5 -276.5q0 -46 7 -76.5t14 -44.5t7 -18q-110 0 -164.5 46t-54.5 153z M631 1704q49 98 137 149.5t205 51.5q77 0 179.5 -34t158.5 -34q82 0 129 47l12 -2q-16 -75 -116.5 -140t-213.5 -65q-71 0 -180 38t-164 38q-76 0 -135 -53z" />
<glyph unicode="&#xd2;" horiz-adv-x="1347" d="M33 977q0 141 115 270.5t307 209t403 79.5q131 0 226.5 -38.5t151 -110t81.5 -164.5t26 -211q0 -87 -13.5 -181t-42.5 -194.5t-71.5 -193.5t-105 -176.5t-137.5 -145t-174.5 -97.5t-210.5 -36q-171 0 -269 98.5t-98 312.5q0 85 16 186.5t45.5 210t78 209t107.5 180 t139 127.5t169 48q60 0 107 -17q-89 -54 -174 -223.5t-135 -370.5t-50 -358q0 -110 29.5 -173.5t89.5 -63.5q100 0 201 145t164 362.5t63 421.5q0 95 -11 157.5t-39.5 110.5t-80 69.5t-131.5 21.5q-118 0 -224.5 -37t-188 -103.5t-129.5 -167t-48 -219.5q0 -48 11 -79 l10 -31q-102 0 -154.5 40.5t-52.5 131.5zM598 2048h215l59 -387h-153z" />
<glyph unicode="&#xd3;" horiz-adv-x="1347" d="M33 977q0 141 115 270.5t307 209t403 79.5q131 0 226.5 -38.5t151 -110t81.5 -164.5t26 -211q0 -87 -13.5 -181t-42.5 -194.5t-71.5 -193.5t-105 -176.5t-137.5 -145t-174.5 -97.5t-210.5 -36q-171 0 -269 98.5t-98 312.5q0 85 16 186.5t45.5 210t78 209t107.5 180 t139 127.5t169 48q60 0 107 -17q-89 -54 -174 -223.5t-135 -370.5t-50 -358q0 -110 29.5 -173.5t89.5 -63.5q100 0 201 145t164 362.5t63 421.5q0 95 -11 157.5t-39.5 110.5t-80 69.5t-131.5 21.5q-118 0 -224.5 -37t-188 -103.5t-129.5 -167t-48 -219.5q0 -48 11 -79 l10 -31q-102 0 -154.5 40.5t-52.5 131.5zM813 1661l186 387h215l-247 -387h-154z" />
<glyph unicode="&#xd4;" horiz-adv-x="1347" d="M33 977q0 141 115 270.5t307 209t403 79.5q131 0 226.5 -38.5t151 -110t81.5 -164.5t26 -211q0 -87 -13.5 -181t-42.5 -194.5t-71.5 -193.5t-105 -176.5t-137.5 -145t-174.5 -97.5t-210.5 -36q-171 0 -269 98.5t-98 312.5q0 85 16 186.5t45.5 210t78 209t107.5 180 t139 127.5t169 48q60 0 107 -17q-89 -54 -174 -223.5t-135 -370.5t-50 -358q0 -110 29.5 -173.5t89.5 -63.5q100 0 201 145t164 362.5t63 421.5q0 95 -11 157.5t-39.5 110.5t-80 69.5t-131.5 21.5q-118 0 -224.5 -37t-188 -103.5t-129.5 -167t-48 -219.5q0 -48 11 -79 l10 -31q-102 0 -154.5 40.5t-52.5 131.5zM557 1661l434 387h43l123 -387h-65l-123 164l-322 -164h-90z" />
<glyph unicode="&#xd5;" horiz-adv-x="1347" d="M33 977q0 141 115 270.5t307 209t403 79.5q131 0 226.5 -38.5t151 -110t81.5 -164.5t26 -211q0 -87 -13.5 -181t-42.5 -194.5t-71.5 -193.5t-105 -176.5t-137.5 -145t-174.5 -97.5t-210.5 -36q-171 0 -269 98.5t-98 312.5q0 85 16 186.5t45.5 210t78 209t107.5 180 t139 127.5t169 48q60 0 107 -17q-89 -54 -174 -223.5t-135 -370.5t-50 -358q0 -110 29.5 -173.5t89.5 -63.5q100 0 201 145t164 362.5t63 421.5q0 95 -11 157.5t-39.5 110.5t-80 69.5t-131.5 21.5q-118 0 -224.5 -37t-188 -103.5t-129.5 -167t-48 -219.5q0 -48 11 -79 l10 -31q-102 0 -154.5 40.5t-52.5 131.5zM561 1704q49 98 137 149.5t205 51.5q77 0 179.5 -34t158.5 -34q82 0 129 47l12 -2q-16 -75 -116 -140t-213 -65q-71 0 -180 38t-164 38q-77 0 -136 -53z" />
<glyph unicode="&#xd6;" horiz-adv-x="1347" d="M33 977q0 141 115 270.5t307 209t403 79.5q131 0 226.5 -38.5t151 -110t81.5 -164.5t26 -211q0 -87 -13.5 -181t-42.5 -194.5t-71.5 -193.5t-105 -176.5t-137.5 -145t-174.5 -97.5t-210.5 -36q-171 0 -269 98.5t-98 312.5q0 85 16 186.5t45.5 210t78 209t107.5 180 t139 127.5t169 48q60 0 107 -17q-89 -54 -174 -223.5t-135 -370.5t-50 -358q0 -110 29.5 -173.5t89.5 -63.5q100 0 201 145t164 362.5t63 421.5q0 95 -11 157.5t-39.5 110.5t-80 69.5t-131.5 21.5q-118 0 -224.5 -37t-188 -103.5t-129.5 -167t-48 -219.5q0 -48 11 -79 l10 -31q-102 0 -154.5 40.5t-52.5 131.5zM590 1810q0 52 36 88.5t89 36.5q51 0 88 -37t37 -88q0 -53 -36.5 -88.5t-88.5 -35.5q-54 0 -89.5 35t-35.5 89zM958 1810q0 52 36 88.5t89 36.5q51 0 88 -37t37 -88q0 -53 -36.5 -88.5t-88.5 -35.5q-54 0 -89.5 35t-35.5 89z" />
<glyph unicode="&#xd7;" horiz-adv-x="1054" d="M201 338l194 194l-194 195l133 131l192 -194l197 196l131 -133l-195 -195l195 -194l-131 -133l-197 194l-192 -192z" />
<glyph unicode="&#xd8;" horiz-adv-x="1347" d="M31 913q0 99 66 195.5t174.5 168.5t255.5 116.5t300 44.5q34 0 50 -2l22 100h107l-25 -115q313 -75 313 -475q0 -106 -21.5 -221.5t-70 -236.5t-118 -220.5t-174.5 -173.5t-230 -96l-31 -143h-106l28 133h-4q-166 0 -260 93.5t-94 293.5q0 79 15.5 174t44.5 196 t75.5 195.5t103.5 169t134 119.5t162 45q51 0 92 -14l18 83q-40 7 -78 7q-153 0 -281.5 -59t-208 -173t-79.5 -262q0 -32 5 -54.5t10 -33t5 -14.5q-98 0 -149 37t-51 122zM506 367q0 -205 98 -224l234 1106q-83 -55 -161.5 -213t-124.5 -342t-46 -327zM719 180 q81 60 153 195.5t116 308t44 330.5q0 111 -16.5 178t-61.5 106z" />
<glyph unicode="&#xd9;" horiz-adv-x="1472" d="M0 993q0 85 42 167t116.5 149t171 118.5t212 80t232.5 28.5q44 0 98 -10q-32 -117 -74.5 -274t-64 -236t-49 -183.5t-40.5 -159.5t-26 -118.5t-17.5 -105t-4.5 -78.5q0 -92 33 -138.5t108 -46.5q43 0 70 4.5t59 19.5t55 46t49.5 81t51 127.5t52 183.5t59.5 251l137 633 h289l-136 -639q-30 -145 -56.5 -247.5t-61 -204t-72 -168t-88.5 -125.5t-113 -92t-141 -51.5t-178 -18.5q-213 0 -304.5 81.5t-91.5 243.5q0 50 7.5 113.5t15.5 112.5t29.5 142t32 136.5t41.5 166.5t42 165l68 270q-170 -45 -266.5 -166.5t-96.5 -304.5q0 -48 7 -79 t14.5 -44t7.5 -18q-108 0 -163.5 44t-55.5 144zM840 2048h215l59 -387h-153z" />
<glyph unicode="&#xda;" horiz-adv-x="1472" d="M0 993q0 85 42 167t116.5 149t171 118.5t212 80t232.5 28.5q44 0 98 -10q-32 -117 -74.5 -274t-64 -236t-49 -183.5t-40.5 -159.5t-26 -118.5t-17.5 -105t-4.5 -78.5q0 -92 33 -138.5t108 -46.5q43 0 70 4.5t59 19.5t55 46t49.5 81t51 127.5t52 183.5t59.5 251l137 633 h289l-136 -639q-30 -145 -56.5 -247.5t-61 -204t-72 -168t-88.5 -125.5t-113 -92t-141 -51.5t-178 -18.5q-213 0 -304.5 81.5t-91.5 243.5q0 50 7.5 113.5t15.5 112.5t29.5 142t32 136.5t41.5 166.5t42 165l68 270q-170 -45 -266.5 -166.5t-96.5 -304.5q0 -48 7 -79 t14.5 -44t7.5 -18q-108 0 -163.5 44t-55.5 144zM924 1661l186 387h215l-248 -387h-153z" />
<glyph unicode="&#xdb;" horiz-adv-x="1472" d="M0 993q0 85 42 167t116.5 149t171 118.5t212 80t232.5 28.5q44 0 98 -10q-32 -117 -74.5 -274t-64 -236t-49 -183.5t-40.5 -159.5t-26 -118.5t-17.5 -105t-4.5 -78.5q0 -92 33 -138.5t108 -46.5q43 0 70 4.5t59 19.5t55 46t49.5 81t51 127.5t52 183.5t59.5 251l137 633 h289l-136 -639q-30 -145 -56.5 -247.5t-61 -204t-72 -168t-88.5 -125.5t-113 -92t-141 -51.5t-178 -18.5q-213 0 -304.5 81.5t-91.5 243.5q0 50 7.5 113.5t15.5 112.5t29.5 142t32 136.5t41.5 166.5t42 165l68 270q-170 -45 -266.5 -166.5t-96.5 -304.5q0 -48 7 -79 t14.5 -44t7.5 -18q-108 0 -163.5 44t-55.5 144zM743 1661l435 387h43l122 -387h-65l-123 164l-321 -164h-91z" />
<glyph unicode="&#xdc;" horiz-adv-x="1472" d="M0 993q0 85 42 167t116.5 149t171 118.5t212 80t232.5 28.5q44 0 98 -10q-32 -117 -74.5 -274t-64 -236t-49 -183.5t-40.5 -159.5t-26 -118.5t-17.5 -105t-4.5 -78.5q0 -92 33 -138.5t108 -46.5q43 0 70 4.5t59 19.5t55 46t49.5 81t51 127.5t52 183.5t59.5 251l137 633 h289l-136 -639q-30 -145 -56.5 -247.5t-61 -204t-72 -168t-88.5 -125.5t-113 -92t-141 -51.5t-178 -18.5q-213 0 -304.5 81.5t-91.5 243.5q0 50 7.5 113.5t15.5 112.5t29.5 142t32 136.5t41.5 166.5t42 165l68 270q-170 -45 -266.5 -166.5t-96.5 -304.5q0 -48 7 -79 t14.5 -44t7.5 -18q-108 0 -163.5 44t-55.5 144zM764 1810q0 52 36 88.5t89 36.5q51 0 88 -37t37 -88q0 -53 -36.5 -88.5t-88.5 -35.5q-54 0 -89.5 35t-35.5 89zM1133 1810q0 52 35.5 88.5t88.5 36.5q51 0 88 -37t37 -88q0 -53 -36.5 -88.5t-88.5 -35.5q-54 0 -89 35t-35 89z " />
<glyph unicode="&#xdd;" horiz-adv-x="1269" d="M12 1004q0 132 108 256.5t275 200t336 75.5q28 0 82 -4l178 -733l303 727h136l-398 -895l-135 -631h-328l136 631l-197 768q-145 -55 -225 -171.5t-80 -283.5q0 -46 7 -76.5t14 -44.5t7 -18q-110 0 -164.5 46t-54.5 153zM928 1661l186 387h215l-248 -387h-153z" />
<glyph unicode="&#xde;" horiz-adv-x="1193" d="M12 778q0 147 130 282t319 202l51 233l303 41l-49 -225q113 -6 200.5 -41t140.5 -90.5t80 -124.5t27 -148q0 -99 -41.5 -196t-115 -176t-187.5 -128t-247 -49h-60l-76 -358h-294l245 1151q-235 -122 -235 -432q0 -46 7 -76.5t14 -44.5t7 -18q-110 0 -164.5 45.5 t-54.5 152.5zM580 434h28q103 0 192.5 80t138 195.5t48.5 228.5q0 118 -59.5 196.5t-179.5 82.5z" />
<glyph unicode="&#xdf;" horiz-adv-x="921" d="M-174 -512l340 1597q17 84 49 148.5t69 101.5t83.5 60t87 31t84.5 8q134 0 207 -75t73 -185q0 -92 -49.5 -175.5t-138.5 -124.5q103 -35 150.5 -112.5t47.5 -177.5q0 -120 -26.5 -220.5t-68 -166t-94 -111.5t-103.5 -66t-97 -20q-21 0 -67 4l26 121q60 0 106 51 t70.5 131.5t36 161.5t11.5 158q0 71 -33 113.5t-115 64.5l37 119q73 30 121.5 87t48.5 140q0 58 -17.5 80t-60.5 22q-42 0 -83.5 -38t-59.5 -130l-326 -1523z" />
<glyph unicode="&#xe0;" horiz-adv-x="1077" d="M-27 317q0 86 20 181.5t63.5 191.5t103.5 172t149 124t191 48q84 0 125 -28.5t41 -75.5v-15l22 109h295l-147 -696q-9 -34 -9 -66q0 -88 84 -88q56 0 98 53.5t68 139.5h86q-33 -96 -77 -167.5t-85.5 -110.5t-90 -63t-84.5 -31t-74 -7q-87 0 -139 48t-62 140 q-61 -85 -133 -136.5t-172 -51.5q-43 0 -82 10.5t-74 35t-61 62t-41 94t-15 127.5zM276 346q0 -45 7.5 -76.5t17.5 -47.5t26 -24.5t26.5 -10t25.5 -1.5q51 0 101 48t69 133l98 462q0 26 -20 52t-64 26q-62 0 -118 -60t-91.5 -148.5t-56.5 -183t-21 -169.5zM442 1536h215 l60 -387h-154z" />
<glyph unicode="&#xe1;" horiz-adv-x="1077" d="M-27 317q0 86 20 181.5t63.5 191.5t103.5 172t149 124t191 48q84 0 125 -28.5t41 -75.5v-15l22 109h295l-147 -696q-9 -34 -9 -66q0 -88 84 -88q56 0 98 53.5t68 139.5h86q-33 -96 -77 -167.5t-85.5 -110.5t-90 -63t-84.5 -31t-74 -7q-87 0 -139 48t-62 140 q-61 -85 -133 -136.5t-172 -51.5q-43 0 -82 10.5t-74 35t-61 62t-41 94t-15 127.5zM276 346q0 -45 7.5 -76.5t17.5 -47.5t26 -24.5t26.5 -10t25.5 -1.5q51 0 101 48t69 133l98 462q0 26 -20 52t-64 26q-62 0 -118 -60t-91.5 -148.5t-56.5 -183t-21 -169.5zM502 1149l186 387 h215l-248 -387h-153z" />
<glyph unicode="&#xe2;" horiz-adv-x="1077" d="M-27 317q0 86 20 181.5t63.5 191.5t103.5 172t149 124t191 48q84 0 125 -28.5t41 -75.5v-15l22 109h295l-147 -696q-9 -34 -9 -66q0 -88 84 -88q56 0 98 53.5t68 139.5h86q-33 -96 -77 -167.5t-85.5 -110.5t-90 -63t-84.5 -31t-74 -7q-87 0 -139 48t-62 140 q-61 -85 -133 -136.5t-172 -51.5q-43 0 -82 10.5t-74 35t-61 62t-41 94t-15 127.5zM276 346q0 -45 7.5 -76.5t17.5 -47.5t26 -24.5t26.5 -10t25.5 -1.5q51 0 101 48t69 133l98 462q0 26 -20 52t-64 26q-62 0 -118 -60t-91.5 -148.5t-56.5 -183t-21 -169.5zM299 1149l434 387 h43l123 -387h-65l-123 164l-322 -164h-90z" />
<glyph unicode="&#xe3;" horiz-adv-x="1077" d="M-27 317q0 86 20 181.5t63.5 191.5t103.5 172t149 124t191 48q84 0 125 -28.5t41 -75.5v-15l22 109h295l-147 -696q-9 -34 -9 -66q0 -88 84 -88q56 0 98 53.5t68 139.5h86q-33 -96 -77 -167.5t-85.5 -110.5t-90 -63t-84.5 -31t-74 -7q-87 0 -139 48t-62 140 q-61 -85 -133 -136.5t-172 -51.5q-43 0 -82 10.5t-74 35t-61 62t-41 94t-15 127.5zM209 1192q49 98 137 149.5t205 51.5q77 0 179.5 -34t158.5 -34q82 0 129 47l12 -2q-16 -75 -116.5 -140t-213.5 -65q-71 0 -180 38t-164 38q-76 0 -135 -53zM276 346q0 -45 7.5 -76.5 t17.5 -47.5t26 -24.5t26.5 -10t25.5 -1.5q51 0 101 48t69 133l98 462q0 26 -20 52t-64 26q-62 0 -118 -60t-91.5 -148.5t-56.5 -183t-21 -169.5z" />
<glyph unicode="&#xe4;" horiz-adv-x="1077" d="M-27 317q0 86 20 181.5t63.5 191.5t103.5 172t149 124t191 48q84 0 125 -28.5t41 -75.5v-15l22 109h295l-147 -696q-9 -34 -9 -66q0 -88 84 -88q56 0 98 53.5t68 139.5h86q-33 -96 -77 -167.5t-85.5 -110.5t-90 -63t-84.5 -31t-74 -7q-87 0 -139 48t-62 140 q-61 -85 -133 -136.5t-172 -51.5q-43 0 -82 10.5t-74 35t-61 62t-41 94t-15 127.5zM276 346q0 -45 7.5 -76.5t17.5 -47.5t26 -24.5t26.5 -10t25.5 -1.5q51 0 101 48t69 133l98 462q0 26 -20 52t-64 26q-62 0 -118 -60t-91.5 -148.5t-56.5 -183t-21 -169.5zM369 1298 q0 52 36 88.5t89 36.5q51 0 87.5 -37t36.5 -88q0 -53 -36 -88.5t-88 -35.5q-54 0 -89.5 35t-35.5 89zM737 1298q0 52 36 88.5t89 36.5q51 0 88 -37t37 -88q0 -53 -36.5 -88.5t-88.5 -35.5q-54 0 -89.5 35t-35.5 89z" />
<glyph unicode="&#xe5;" horiz-adv-x="1077" d="M-27 317q0 86 20 181.5t63.5 191.5t103.5 172t149 124t191 48q84 0 125 -28.5t41 -75.5v-15l22 109h295l-147 -696q-9 -34 -9 -66q0 -88 84 -88q56 0 98 53.5t68 139.5h86q-33 -96 -77 -167.5t-85.5 -110.5t-90 -63t-84.5 -31t-74 -7q-87 0 -139 48t-62 140 q-61 -85 -133 -136.5t-172 -51.5q-43 0 -82 10.5t-74 35t-61 62t-41 94t-15 127.5zM276 346q0 -45 7.5 -76.5t17.5 -47.5t26 -24.5t26.5 -10t25.5 -1.5q51 0 101 48t69 133l98 462q0 26 -20 52t-64 26q-62 0 -118 -60t-91.5 -148.5t-56.5 -183t-21 -169.5zM479 1274 q0 29 10.5 60.5t30 60t54.5 47t79 18.5q72 0 110 -44t38 -113q0 -74 -43.5 -123.5t-134.5 -49.5q-65 0 -104.5 41.5t-39.5 102.5zM561 1278q0 -76 70 -76q46 0 70 25t24 69q0 28 -2.5 45t-18.5 34.5t-47 17.5q-49 0 -72.5 -35t-23.5 -80z" />
<glyph unicode="&#xe6;" horiz-adv-x="1331" d="M-16 254q0 92 34.5 159.5t97.5 106t142.5 56.5t179.5 18q74 0 107 -8q43 91 43 180q0 65 -31 105t-94 40q-85 0 -141.5 -24.5t-106.5 -71.5l-57 59q55 55 104.5 89.5t98 49t82.5 18t87 3.5q163 0 267 -82q121 90 276 90q66 0 111.5 -15.5t69 -45t33 -63.5t9.5 -78 q0 -111 -66.5 -207t-174 -153.5t-230.5 -65.5q-4 -46 -4 -66q0 -108 31 -148t92 -40q58 0 107 11t81 24.5t72 46.5t60.5 54t66.5 71h70q-230 -375 -565 -375q-247 0 -301 192q-32 -60 -64.5 -99t-91 -68t-135.5 -29q-50 0 -92.5 11.5t-82 39.5t-62.5 82.5t-23 132.5z M272 289q0 -32 11 -54.5t28 -32t30 -13t26 -3.5q56 0 94 61t69 220q-14 2 -34 2q-100 0 -162 -49.5t-62 -130.5zM840 512q77 5 146.5 53.5t111 123.5t41.5 155q0 46 -10.5 68t-38.5 22q-52 0 -103.5 -66t-87.5 -159t-59 -197z" />
<glyph unicode="&#xe7;" horiz-adv-x="786" d="M-27 313q0 54 8.5 115.5t28.5 133t49 138.5t74 130t99.5 109.5t130 74.5t161.5 28q65 0 111.5 -16t70.5 -44t35 -59.5t11 -68.5q0 -72 -31 -110.5t-78 -38.5q-35 0 -72 24q25 70 25 121q0 84 -57 84q-61 0 -124 -103.5t-101 -244t-38 -254.5q0 -100 35 -136t113 -36 q58 0 108.5 15t96 46.5t78.5 63t79 82.5h70q-174 -287 -407 -357l-60 -145q69 16 109 16q127 0 127 -102q0 -104 -74 -164.5t-172 -60.5q-70 0 -117.5 14t-101.5 43q35 65 82 65q44 0 84 -27.5t67 -27.5q26 0 44 26.5t18 59.5q0 32 -20 53t-60 21q-49 0 -107 -25l84 236 q-36 -4 -59 -4q-153 0 -236.5 79t-83.5 246z" />
<glyph unicode="&#xe8;" horiz-adv-x="786" d="M-27 313q0 53 8.5 114.5t28 133t48.5 138.5t74 130t100.5 110t131 75t162.5 28q226 0 226 -196q0 -115 -66.5 -212.5t-174 -154.5t-230.5 -65q-5 -77 -5 -82q0 -100 35 -136t113 -36q58 0 108.5 15t96 46.5t78.5 63t79 82.5h70q-229 -379 -563 -379q-153 0 -236.5 79 t-83.5 246zM297 512q117 8 207 109.5t90 228.5q0 84 -51 84q-49 0 -100 -64t-88.5 -159t-57.5 -199zM354 1536h215l60 -387h-154z" />
<glyph unicode="&#xe9;" horiz-adv-x="786" d="M-27 313q0 53 8.5 114.5t28 133t48.5 138.5t74 130t100.5 110t131 75t162.5 28q226 0 226 -196q0 -115 -66.5 -212.5t-174 -154.5t-230.5 -65q-5 -77 -5 -82q0 -100 35 -136t113 -36q58 0 108.5 15t96 46.5t78.5 63t79 82.5h70q-229 -379 -563 -379q-153 0 -236.5 79 t-83.5 246zM297 512q117 8 207 109.5t90 228.5q0 84 -51 84q-49 0 -100 -64t-88.5 -159t-57.5 -199zM397 1149l187 387h215l-248 -387h-154z" />
<glyph unicode="&#xea;" horiz-adv-x="786" d="M-27 313q0 53 8.5 114.5t28 133t48.5 138.5t74 130t100.5 110t131 75t162.5 28q226 0 226 -196q0 -115 -66.5 -212.5t-174 -154.5t-230.5 -65q-5 -77 -5 -82q0 -100 35 -136t113 -36q58 0 108.5 15t96 46.5t78.5 63t79 82.5h70q-229 -379 -563 -379q-153 0 -236.5 79 t-83.5 246zM215 1149l434 387h43l123 -387h-65l-123 164l-322 -164h-90zM297 512q117 8 207 109.5t90 228.5q0 84 -51 84q-49 0 -100 -64t-88.5 -159t-57.5 -199z" />
<glyph unicode="&#xeb;" horiz-adv-x="786" d="M-27 313q0 53 8.5 114.5t28 133t48.5 138.5t74 130t100.5 110t131 75t162.5 28q226 0 226 -196q0 -115 -66.5 -212.5t-174 -154.5t-230.5 -65q-5 -77 -5 -82q0 -100 35 -136t113 -36q58 0 108.5 15t96 46.5t78.5 63t79 82.5h70q-229 -379 -563 -379q-153 0 -236.5 79 t-83.5 246zM244 1298q0 52 36 88.5t89 36.5q51 0 88 -37t37 -88q0 -53 -36.5 -88.5t-88.5 -35.5q-54 0 -89.5 35t-35.5 89zM297 512q117 8 207 109.5t90 228.5q0 84 -51 84q-49 0 -100 -64t-88.5 -159t-57.5 -199zM612 1298q0 52 36 88.5t89 36.5q51 0 88 -37t37 -88 q0 -53 -36.5 -88.5t-88.5 -35.5q-54 0 -89.5 35t-35.5 89z" />
<glyph unicode="&#xec;" horiz-adv-x="546" d="M-16 233q0 52 16 134l139 657h295l-147 -696q-8 -31 -8 -66q0 -42 19.5 -59t63.5 -17q59 0 110 51t75 130h86q-33 -95 -79 -167t-90.5 -111t-95.5 -63t-89 -31t-76 -7q-98 0 -158.5 61t-60.5 184zM135 1536h215l60 -387h-154z" />
<glyph unicode="&#xed;" horiz-adv-x="546" d="M-16 233q0 52 16 134l139 657h295l-147 -696q-8 -31 -8 -66q0 -42 19.5 -59t63.5 -17q59 0 110 51t75 130h86q-33 -95 -79 -167t-90.5 -111t-95.5 -63t-89 -31t-76 -7q-98 0 -158.5 61t-60.5 184zM248 1149l186 387h215l-248 -387h-153z" />
<glyph unicode="&#xee;" horiz-adv-x="546" d="M-16 233q0 52 16 134l139 657h295l-147 -696q-8 -31 -8 -66q0 -42 19.5 -59t63.5 -17q59 0 110 51t75 130h86q-33 -95 -79 -167t-90.5 -111t-95.5 -63t-89 -31t-76 -7q-98 0 -158.5 61t-60.5 184zM12 1149l434 387h43l123 -387h-65l-123 164l-322 -164h-90z" />
<glyph unicode="&#xef;" horiz-adv-x="546" d="M-16 233q0 52 16 134l139 657h295l-147 -696q-8 -31 -8 -66q0 -42 19.5 -59t63.5 -17q59 0 110 51t75 130h86q-33 -95 -79 -167t-90.5 -111t-95.5 -63t-89 -31t-76 -7q-98 0 -158.5 61t-60.5 184zM35 1298q0 52 36 88.5t89 36.5q51 0 88 -37t37 -88q0 -53 -36.5 -88.5 t-88.5 -35.5q-54 0 -89.5 35t-35.5 89zM403 1298q0 52 36 88.5t89 36.5q51 0 88 -37t37 -88q0 -53 -36.5 -88.5t-88.5 -35.5q-54 0 -89.5 35t-35.5 89z" />
<glyph unicode="&#xf0;" horiz-adv-x="1101" d="M-2 317q0 86 20 181.5t63 191.5t103.5 172t149 124t190.5 48q84 0 125 -28.5t41 -75.5v-12l17 75q19 76 22 156h-158l17 82h141q-12 103 -86 203h92q79 -44 133 -90t86 -113h129l-16 -82h-86q12 -50 12 -109q0 -71 -22 -190l-111 -522q-8 -31 -8 -66q0 -42 20 -59t64 -17 q57 0 99 49t67 132h86q-126 -367 -412 -367q-85 0 -137 45.5t-64 132.5q-123 -190 -305 -190q-55 0 -101.5 17.5t-86 55t-62 103t-22.5 153.5zM301 346q0 -55 10 -90.5t28 -49t31.5 -17t32.5 -3.5q51 0 101 48t69 133l99 462q0 25 -20.5 51.5t-63.5 26.5q-62 0 -118 -60 t-91.5 -148.5t-56.5 -183t-21 -169.5z" />
<glyph unicode="&#xf1;" d="M-78 0l217 1024h295l-22 -106q102 114 239 114q104 0 166 -56.5t62 -174.5q0 -89 -49.5 -283.5t-49.5 -245.5q0 -86 82 -86q61 0 98 44.5t74 136.5h86q-33 -97 -73.5 -168t-78.5 -110.5t-81.5 -63t-76.5 -30.5t-71 -7q-125 0 -183 66t-58 165q0 71 46 264t46 258 q0 105 -74 105q-53 0 -94 -52.5t-66 -136.5l-139 -657h-295zM180 1192q49 98 137 149.5t205 51.5q77 0 179.5 -34t158.5 -34q82 0 129 47l12 -2q-16 -75 -116 -140t-213 -65q-71 0 -180 38t-164 38q-76 0 -135 -53z" />
<glyph unicode="&#xf2;" horiz-adv-x="886" d="M-41 315q0 63 13 137t39 157t71.5 159t105 138t145.5 99t187 37q262 0 262 -327v-2q6 -2 23 -2q67 0 154.5 36t160.5 87l19 -56q-60 -63 -155 -107t-208 -63q-24 -280 -160.5 -448t-328.5 -168q-152 0 -240 77.5t-88 245.5zM264 342q0 -99 22.5 -132.5t82.5 -33.5 q75 0 143.5 123t93.5 303q-55 13 -55 86q0 85 63 111q-5 67 -21 93t-56 26q-68 0 -133.5 -102.5t-102.5 -236t-37 -237.5zM367 1536h215l59 -387h-154z" />
<glyph unicode="&#xf3;" horiz-adv-x="886" d="M-41 315q0 63 13 137t39 157t71.5 159t105 138t145.5 99t187 37q262 0 262 -327v-2q6 -2 23 -2q67 0 154.5 36t160.5 87l19 -56q-60 -63 -155 -107t-208 -63q-24 -280 -160.5 -448t-328.5 -168q-152 0 -240 77.5t-88 245.5zM264 342q0 -99 22.5 -132.5t82.5 -33.5 q75 0 143.5 123t93.5 303q-55 13 -55 86q0 85 63 111q-5 67 -21 93t-56 26q-68 0 -133.5 -102.5t-102.5 -236t-37 -237.5zM449 1149l186 387h215l-248 -387h-153z" />
<glyph unicode="&#xf4;" horiz-adv-x="886" d="M-41 315q0 63 13 137t39 157t71.5 159t105 138t145.5 99t187 37q262 0 262 -327v-2q6 -2 23 -2q67 0 154.5 36t160.5 87l19 -56q-60 -63 -155 -107t-208 -63q-24 -280 -160.5 -448t-328.5 -168q-152 0 -240 77.5t-88 245.5zM195 1149l434 387h43l123 -387h-66l-123 164 l-321 -164h-90zM264 342q0 -99 22.5 -132.5t82.5 -33.5q75 0 143.5 123t93.5 303q-55 13 -55 86q0 85 63 111q-5 67 -21 93t-56 26q-68 0 -133.5 -102.5t-102.5 -236t-37 -237.5z" />
<glyph unicode="&#xf5;" horiz-adv-x="886" d="M-41 315q0 63 13 137t39 157t71.5 159t105 138t145.5 99t187 37q262 0 262 -327v-2q6 -2 23 -2q67 0 154.5 36t160.5 87l19 -56q-60 -63 -155 -107t-208 -63q-24 -280 -160.5 -448t-328.5 -168q-152 0 -240 77.5t-88 245.5zM82 1192q49 98 137 149.5t205 51.5 q77 0 179.5 -34t158.5 -34q82 0 129 47l12 -2q-16 -75 -116.5 -140t-213.5 -65q-71 0 -180 38t-164 38q-76 0 -135 -53zM264 342q0 -99 22.5 -132.5t82.5 -33.5q75 0 143.5 123t93.5 303q-55 13 -55 86q0 85 63 111q-5 67 -21 93t-56 26q-68 0 -133.5 -102.5t-102.5 -236 t-37 -237.5z" />
<glyph unicode="&#xf6;" horiz-adv-x="886" d="M-41 315q0 63 13 137t39 157t71.5 159t105 138t145.5 99t187 37q262 0 262 -327v-2q6 -2 23 -2q67 0 154.5 36t160.5 87l19 -56q-60 -63 -155 -107t-208 -63q-24 -280 -160.5 -448t-328.5 -168q-152 0 -240 77.5t-88 245.5zM215 1298q0 52 36 88.5t89 36.5q51 0 88 -37 t37 -88q0 -53 -36.5 -88.5t-88.5 -35.5q-54 0 -89.5 35t-35.5 89zM264 342q0 -99 22.5 -132.5t82.5 -33.5q75 0 143.5 123t93.5 303q-55 13 -55 86q0 85 63 111q-5 67 -21 93t-56 26q-68 0 -133.5 -102.5t-102.5 -236t-37 -237.5zM584 1298q0 52 36 88.5t89 36.5 q51 0 88 -37t37 -88q0 -53 -36.5 -88.5t-88.5 -35.5q-54 0 -89.5 35t-35.5 89z" />
<glyph unicode="&#xf7;" horiz-adv-x="966" d="M104 422l37 162h717l-35 -162h-719zM301 164q0 68 47.5 116t114.5 48t115.5 -48t48.5 -116q0 -67 -48 -114.5t-116 -47.5q-67 0 -114.5 47t-47.5 115zM424 850q0 68 47.5 116t114.5 48q68 0 116 -48t48 -116q0 -67 -48 -114.5t-116 -47.5t-115 47t-47 115z" />
<glyph unicode="&#xf8;" horiz-adv-x="876" d="M-29 315q0 62 12 133.5t36.5 153.5t67.5 157t100 137t140 101t181 43l41 199h106l-43 -209q170 -47 176 -299q72 4 159.5 42t144.5 81h65q-46 -67 -152 -133t-221 -94q-17 -252 -123.5 -417t-267.5 -206l-45 -215h-106l43 203q-146 5 -230 82.5t-84 240.5zM276 342 q0 -99 22.5 -132.5t82.5 -33.5q75 0 141.5 123.5t91.5 308.5q-57 15 -57 94q0 86 64 109q-4 59 -22.5 83t-55.5 24q-68 0 -132 -102.5t-99.5 -235.5t-35.5 -238z" />
<glyph unicode="&#xf9;" d="M-16 233q0 52 16 134l139 657h295l-147 -696q-6 -30 -6 -58q0 -84 61 -84q110 0 164 181l139 657h295l-147 -696q-9 -34 -9 -66q0 -42 20 -59t64 -17q57 0 99 49t67 132h86q-33 -96 -77 -167.5t-85.5 -110.5t-90 -63t-84.5 -31t-74 -7q-88 0 -140.5 49t-62.5 145 q-118 -194 -303 -194q-98 0 -158.5 61t-60.5 184zM379 1536h215l59 -387h-153z" />
<glyph unicode="&#xfa;" d="M-16 233q0 52 16 134l139 657h295l-147 -696q-6 -30 -6 -58q0 -84 61 -84q110 0 164 181l139 657h295l-147 -696q-9 -34 -9 -66q0 -42 20 -59t64 -17q57 0 99 49t67 132h86q-33 -96 -77 -167.5t-85.5 -110.5t-90 -63t-84.5 -31t-74 -7q-88 0 -140.5 49t-62.5 145 q-118 -194 -303 -194q-98 0 -158.5 61t-60.5 184zM489 1149l187 387h215l-248 -387h-154z" />
<glyph unicode="&#xfb;" d="M-16 233q0 52 16 134l139 657h295l-147 -696q-6 -30 -6 -58q0 -84 61 -84q110 0 164 181l139 657h295l-147 -696q-9 -34 -9 -66q0 -42 20 -59t64 -17q57 0 99 49t67 132h86q-33 -96 -77 -167.5t-85.5 -110.5t-90 -63t-84.5 -31t-74 -7q-88 0 -140.5 49t-62.5 145 q-118 -194 -303 -194q-98 0 -158.5 61t-60.5 184zM258 1149l434 387h43l123 -387h-65l-123 164l-322 -164h-90z" />
<glyph unicode="&#xfc;" d="M-16 233q0 52 16 134l139 657h295l-147 -696q-6 -30 -6 -58q0 -84 61 -84q110 0 164 181l139 657h295l-147 -696q-9 -34 -9 -66q0 -42 20 -59t64 -17q57 0 99 49t67 132h86q-33 -96 -77 -167.5t-85.5 -110.5t-90 -63t-84.5 -31t-74 -7q-88 0 -140.5 49t-62.5 145 q-118 -194 -303 -194q-98 0 -158.5 61t-60.5 184zM279 1298q0 52 35.5 88.5t88.5 36.5q51 0 88 -37t37 -88q0 -53 -36.5 -88.5t-88.5 -35.5q-54 0 -89 35t-35 89zM647 1298q0 52 36 88.5t89 36.5q51 0 88 -37t37 -88q0 -53 -36.5 -88.5t-88.5 -35.5q-54 0 -89.5 35t-35.5 89 z" />
<glyph unicode="&#xfd;" d="M-16 233q0 52 16 134l139 657h295l-147 -696q-6 -24 -6 -52q0 -90 61 -90q54 0 94.5 45.5t65.5 122.5l143 670h295l-203 -950q97 34 157 99t101 194h86q-29 -97 -72 -168.5t-93.5 -113t-96.5 -64.5t-100 -37l-31 -148q-70 -348 -369 -348q-99 0 -164 51.5t-65 147.5 q0 61 29 112t81.5 87.5t105 60.5t118.5 45l25 110q-105 -114 -246 -114q-98 0 -158.5 61t-60.5 184zM203 -285q0 -26 18 -46.5t51 -20.5q34 0 67 47t52 135l12 59q-200 -74 -200 -174zM487 1149l187 387h215l-248 -387h-154z" />
<glyph unicode="&#xfe;" horiz-adv-x="968" d="M-188 -512l319 1505q25 116 25 191q0 72 -20.5 130.5t-67.5 119.5h92q49 -29 79 -49t68 -55.5t59.5 -73t36.5 -93.5t15 -123q0 -48 -8 -100q101 94 247 94q114 0 182 -75.5t68 -247.5q0 -74 -10 -150t-32 -159.5t-61.5 -156t-93 -131t-132.5 -92.5t-175 -34 q-132 0 -176 75l-106 -501zM260 217q16 -51 80 -51q61 0 112 39.5t82.5 99.5t53 136t30.5 145.5t9 130.5q0 170 -103 170q-37 0 -76 -27.5t-67 -79.5z" />
<glyph unicode="&#xff;" d="M-16 233q0 52 16 134l139 657h295l-147 -696q-6 -24 -6 -52q0 -90 61 -90q54 0 94.5 45.5t65.5 122.5l143 670h295l-203 -950q97 34 157 99t101 194h86q-29 -97 -72 -168.5t-93.5 -113t-96.5 -64.5t-100 -37l-31 -148q-70 -348 -369 -348q-99 0 -164 51.5t-65 147.5 q0 61 29 112t81.5 87.5t105 60.5t118.5 45l25 110q-105 -114 -246 -114q-98 0 -158.5 61t-60.5 184zM203 -285q0 -26 18 -46.5t51 -20.5q34 0 67 47t52 135l12 59q-200 -74 -200 -174zM252 1298q0 52 36 88.5t89 36.5q51 0 88 -37t37 -88q0 -53 -36.5 -88.5t-88.5 -35.5 q-54 0 -89.5 35t-35.5 89zM621 1298q0 52 35.5 88.5t88.5 36.5q51 0 88 -37t37 -88q0 -53 -36.5 -88.5t-88.5 -35.5q-54 0 -89 35t-35 89z" />
<glyph unicode="&#x152;" horiz-adv-x="1732" d="M33 977q0 141 115 270.5t307 209t403 79.5q130 0 225 -39q109 39 265 39q35 0 151.5 -12.5t188.5 -12.5q105 0 184 25q-4 -11 -13 -44t-14.5 -50.5t-20.5 -46.5t-32.5 -46t-47 -34t-67.5 -25q-92 0 -233.5 34.5t-190.5 39.5q90 -129 90 -352q0 -66 -10 -154h273l-41 -151 h-260q-71 -303 -236 -490h500l-43 -217h-793l2 4q-75 -16 -147 -16q-171 0 -269 98.5t-98 312.5q0 85 16 186.5t45.5 210t78 209t107.5 180t139 127.5t169 48q60 0 107 -17q-89 -54 -174 -223.5t-135 -370.5t-50 -358q0 -110 29.5 -173.5t89.5 -63.5q100 0 201 145 t164 362.5t63 421.5q0 95 -11 157.5t-39.5 110.5t-80 69.5t-131.5 21.5q-118 0 -224.5 -37t-188 -103.5t-129.5 -167t-48 -219.5q0 -48 11 -79l10 -31q-102 0 -154.5 40.5t-52.5 131.5z" />
<glyph unicode="&#x153;" horiz-adv-x="1357" d="M-14 324q0 182 43.5 323t119 226t170.5 128t205 43q182 0 230 -174q126 172 327 172q262 0 262 -213q0 -72 -29.5 -137t-77 -111.5t-108.5 -83t-124 -57.5t-123 -28q-7 -58 -7 -88q0 -94 49 -135.5t119 -41.5q79 0 185.5 80t158.5 191h93q-45 -83 -103 -155t-130 -132.5 t-161.5 -95.5t-183.5 -35q-101 0 -171.5 48.5t-104.5 129.5q-66 -94 -151.5 -142t-174.5 -48q-166 0 -239.5 77.5t-73.5 258.5zM258 342q0 -87 35.5 -121.5t101.5 -34.5q46 0 83.5 33t63.5 91t43.5 125.5t28.5 146.5q-42 0 -64 26.5t-22 65.5q0 45 25 85.5t65 57.5 q-9 107 -86 107q-68 0 -123.5 -67t-86.5 -164t-47.5 -190t-16.5 -161zM897 510q89 0 165 47.5t117.5 118.5t41.5 143q0 42 -16.5 78.5t-55.5 36.5q-41 0 -81 -38.5t-72 -102t-56.5 -135t-42.5 -148.5z" />
<glyph unicode="&#x178;" horiz-adv-x="1269" d="M12 1004q0 132 108 256.5t275 200t336 75.5q28 0 82 -4l178 -733l303 727h136l-398 -895l-135 -631h-328l136 631l-197 768q-145 -55 -225 -171.5t-80 -283.5q0 -46 7 -76.5t14 -44.5t7 -18q-110 0 -164.5 46t-54.5 153zM776 1810q0 52 36 88.5t89 36.5q51 0 88 -37 t37 -88q0 -53 -36.5 -88.5t-88.5 -35.5q-54 0 -89.5 35t-35.5 89zM1145 1810q0 52 36 88.5t89 36.5q51 0 88 -37t37 -88q0 -53 -36.5 -88.5t-88.5 -35.5q-54 0 -89.5 35t-35.5 89z" />
<glyph unicode="&#x2c6;" horiz-adv-x="600" d="M0 1149l434 387h43l123 -387h-65l-123 164l-322 -164h-90z" />
<glyph unicode="&#x2dc;" horiz-adv-x="825" d="M78 1192q49 98 137 149.5t205 51.5q77 0 179.5 -34t158.5 -34q82 0 129 47l12 -2q-16 -75 -116.5 -140t-213.5 -65q-71 0 -180 38t-164 38q-76 0 -135 -53z" />
<glyph unicode="&#x2000;" horiz-adv-x="1024" />
<glyph unicode="&#x2001;" horiz-adv-x="2048" />
<glyph unicode="&#x2002;" horiz-adv-x="1024" />
<glyph unicode="&#x2003;" horiz-adv-x="2048" />
<glyph unicode="&#x2004;" horiz-adv-x="682" />
<glyph unicode="&#x2005;" horiz-adv-x="512" />
<glyph unicode="&#x2006;" horiz-adv-x="341" />
<glyph unicode="&#x2007;" horiz-adv-x="341" />
<glyph unicode="&#x2008;" horiz-adv-x="256" />
<glyph unicode="&#x2009;" horiz-adv-x="409" />
<glyph unicode="&#x200a;" horiz-adv-x="113" />
<glyph unicode="&#x2010;" horiz-adv-x="593" d="M39 455l37 161h409l-34 -161h-412z" />
<glyph unicode="&#x2011;" horiz-adv-x="593" d="M39 455l37 161h409l-34 -161h-412z" />
<glyph unicode="&#x2012;" horiz-adv-x="593" d="M39 455l37 161h409l-34 -161h-412z" />
<glyph unicode="&#x2013;" horiz-adv-x="720" d="M39 455l37 161h532l-35 -161h-534z" />
<glyph unicode="&#x2014;" horiz-adv-x="909" d="M39 455l37 161h717l-35 -161h-719z" />
<glyph unicode="&#x2018;" horiz-adv-x="624" d="M172 1397q0 61 34.5 98t96.5 37q63 0 106.5 -41.5t43.5 -101.5q0 -74 -91 -129q-24 -15 -24 -35l100 -144q0 -19 -18 -28q-115 73 -181.5 168t-66.5 176z" />
<glyph unicode="&#x2019;" horiz-adv-x="624" d="M172 1389q0 60 43.5 101.5t106.5 41.5q62 0 96.5 -37t34.5 -98q0 -81 -66.5 -176t-181.5 -168q-19 9 -19 28l101 144q0 19 -25 35q-90 55 -90 129z" />
<glyph unicode="&#x201a;" horiz-adv-x="579" d="M156 156q0 60 43 101.5t106 41.5q62 0 96.5 -37t34.5 -98q0 -81 -66.5 -176t-181.5 -168q-18 9 -18 28l100 144q0 20 -24 35q-90 55 -90 129z" />
<glyph unicode="&#x201c;" horiz-adv-x="1042" d="M156 1188q0 82 66.5 176.5t180.5 167.5q19 -10 19 -29l-100 -143q0 -20 24 -35q90 -55 90 -129q0 -60 -43 -101.5t-106 -41.5q-62 0 -96.5 37t-34.5 98zM606 1188q0 81 66.5 176t181.5 168q18 -9 18 -29l-100 -143q0 -19 25 -35q90 -55 90 -129q0 -60 -43.5 -101.5 t-106.5 -41.5q-62 0 -96.5 37t-34.5 98z" />
<glyph unicode="&#x201d;" horiz-adv-x="1042" d="M156 1389q0 60 43 101.5t106 41.5q62 0 96.5 -37t34.5 -98q0 -81 -66.5 -176t-181.5 -168q-18 9 -18 28l100 144q0 20 -24 35q-90 55 -90 129zM606 1389q0 60 43.5 101.5t106.5 41.5q62 0 96.5 -37t34.5 -98q0 -81 -66.5 -176t-181.5 -168q-18 9 -18 28l100 144 q0 19 -25 35q-90 55 -90 129z" />
<glyph unicode="&#x201e;" horiz-adv-x="1042" d="M156 156q0 60 43 101.5t106 41.5q62 0 96.5 -37t34.5 -98q0 -81 -66.5 -176t-181.5 -168q-18 9 -18 28l100 144q0 20 -24 35q-90 55 -90 129zM606 156q0 60 43.5 101.5t106.5 41.5q62 0 96.5 -37t34.5 -98q0 -81 -66.5 -176t-181.5 -168q-18 9 -18 28l100 144 q0 19 -25 35q-90 55 -90 129z" />
<glyph unicode="&#x2022;" horiz-adv-x="888" d="M246 547q0 82 57 140t139 58t140.5 -58t58.5 -140t-58.5 -139.5t-140.5 -57.5t-139 57.5t-57 139.5z" />
<glyph unicode="&#x2026;" horiz-adv-x="1437" d="M63 154q0 68 47.5 115.5t114.5 47.5q68 0 116 -48t48 -115t-48 -114.5t-116 -47.5q-67 0 -114.5 47t-47.5 115zM545 154q0 68 47.5 115.5t114.5 47.5t115 -47.5t48 -115.5q0 -67 -47.5 -114.5t-115.5 -47.5q-67 0 -114.5 47t-47.5 115zM1047 154q0 68 47 115.5t114 47.5 q68 0 116 -48t48 -115t-48 -114.5t-116 -47.5q-67 0 -114 47t-47 115z" />
<glyph unicode="&#x202f;" horiz-adv-x="409" />
<glyph unicode="&#x2039;" horiz-adv-x="735" d="M41 487l18 84l629 349l-20 -113l-494 -287l397 -237l-24 -117z" />
<glyph unicode="&#x203a;" horiz-adv-x="704" d="M31 166l28 117l492 237l-397 287l18 113l504 -349l-23 -110z" />
<glyph unicode="&#x205f;" horiz-adv-x="512" />
<glyph unicode="&#x20ac;" horiz-adv-x="1173" d="M-6 582l29 102h151l16 133h-145l29 103h137q24 103 59.5 190.5t90.5 167.5t124.5 136t165 89t207.5 33q74 0 136.5 -15.5t112.5 -47t78.5 -86t28.5 -125.5q0 -87 -34.5 -138t-108.5 -51q-73 0 -117 53q34 11 62 68.5t28 99.5q0 14 -2 28.5t-10.5 37t-22.5 39t-41.5 29 t-64.5 12.5q-83 0 -157.5 -75t-125 -188.5t-85.5 -256.5h413l-28 -103h-408q-4 -26 -9 -71.5t-7 -61.5h401l-29 -102h-379v-27q0 -84 7 -143t24.5 -107t48.5 -76t78 -42.5t113 -14.5q119 0 187 17.5t128 64.5l4 -59q-88 -115 -199 -161t-264 -46q-67 0 -126.5 13.5t-120 50 t-104 93t-70.5 150.5t-27 215v72h-174z" />
<glyph unicode="&#x2122;" horiz-adv-x="776" d="M-47 1188q0 69 50.5 114.5t158.5 45.5q8 0 63.5 -5.5t89.5 -5.5q51 0 76 11q-13 -80 -51 -80q-19 0 -62 8t-59 10l-86 -399h-88l88 407q-59 -2 -91 -29.5t-32 -95.5q0 -17 8 -41q-65 0 -65 60zM305 887l139 430l84 12v-346l136 356h96l-78 -452h-88l55 319l-129 -319h-84 v268l-82 -268h-49z" />
<glyph unicode="&#xe000;" horiz-adv-x="1136" d="M0 0v1137h1137v-1137h-1137z" />
</font>
</defs>
</svg>
